{"asset":{"version":"2.0","generator":"Blockbench 5.1.5 glTF exporter"},"scenes":[{"nodes":[59],"name":"blockbench_export"}],"scene":0,"nodes":[{"rotation":[-5.4313748883036805e-17,0.8870108331782217,-0.46174861323503386,2.8273948060450667e-17],"translation":[0,0.33696499999999996,-1.312553125],"name":"t","mesh":0},{"rotation":[0.23296295328727323,-0.9230001955466683,0.04029910360959171,0.3036031680742922],"translation":[0.00625,0.33696499999999996,-1.306303125],"name":"t","mesh":1},{"rotation":[0.23296295328727323,-0.9230001955466683,0.04029910360959171,0.3036031680742922],"translation":[0.00625,0.33696499999999996,-1.306303125],"name":"t","mesh":2},{"rotation":[-0.3394443818058379,0.8194911275431022,-0.4266001296402285,-0.1767035170264807],"translation":[0,0.33696499999999996,-1.312553125],"name":"t","mesh":3},{"rotation":[1.7134585317080713e-17,0.2798290140309921,0.9600498543859287,5.87860990597805e-17],"translation":[0,0.33696499999999996,-1.312553125],"name":"t","mesh":4},{"rotation":[6.123233995736766e-17,-1,-6.123233995736766e-17,3.749399456654644e-33],"translation":[0,0.33696499999999996,-1.312553125],"name":"t","mesh":5},{"rotation":[0.23296295328727323,0.9230001955466683,-0.04029910360959171,0.3036031680742922],"translation":[-0.00625,0.33696499999999996,-1.306303125],"name":"t","mesh":6},{"rotation":[0.23296295328727323,0.9230001955466683,-0.04029910360959171,0.3036031680742922],"translation":[-0.00625,0.33696499999999996,-1.306303125],"name":"t","mesh":7},{"rotation":[-0.3394443818058379,-0.8194911275431022,0.4266001296402285,-0.1767035170264807],"translation":[0,0.33696499999999996,-1.312553125],"name":"t","mesh":8},{"rotation":[6.123233995736766e-17,-1,-6.123233995736766e-17,3.749399456654644e-33],"translation":[0,0.33696499999999996,-1.312553125],"name":"t","mesh":9},{"rotation":[1.7134585317080713e-17,0.2798290140309921,0.9600498543859287,5.87860990597805e-17],"translation":[0,0.33696499999999996,-1.312553125],"name":"t","mesh":10},{"rotation":[6.123233995736766e-17,-1,-6.123233995736766e-17,3.749399456654644e-33],"translation":[0,0.33696499999999996,-1.312553125],"name":"t","mesh":11},{"rotation":[1.7134585317080713e-17,0.2798290140309921,0.9600498543859287,5.87860990597805e-17],"translation":[0,0.33696499999999996,-1.312553125],"name":"t","mesh":12},{"name":"t","children":[0,1,2,3,4,5,6,7,8,9,10,11,12]},{"translation":[0,1.3125,0],"name":"crown","children":[13]},{"rotation":[0,-1,0,6.123233995736766e-17],"translation":[0,-1.3125,0],"name":"core","mesh":13},{"name":"core","children":[15]},{"rotation":[-1,0,0,6.123233995736766e-17],"name":"r1","mesh":14},{"translation":[0,-1.1875,0],"name":"r1","children":[17]},{"name":"down_down","children":[18]},{"rotation":[-0.9238795325112867,0,0,0.38268343236508984],"name":"r3","mesh":15},{"translation":[0,-0.8396893750000001,-0.839689375],"name":"r3","children":[20]},{"rotation":[-0.6532814824381883,-0.2705980500730985,-0.6532814824381882,0.27059805007309856],"name":"r9","mesh":16},{"translation":[0.839689375,-0.8396893750000001,0],"name":"r9","children":[22]},{"rotation":[-5.657130561438501e-17,-0.38268343236508984,-0.9238795325112867,2.3432602026631496e-17],"name":"r7","mesh":17},{"translation":[0,-0.8396893750000001,0.839689375],"name":"r7","children":[24]},{"rotation":[-0.6532814824381883,0.2705980500730985,0.6532814824381882,0.27059805007309856],"name":"r5","mesh":18},{"translation":[-0.839689375,-0.8396893750000001,0],"name":"r5","children":[26]},{"name":"down","children":[21,23,25,27]},{"rotation":[-0.5000000000000001,0.5,0.49999999999999994,0.49999999999999994],"name":"r11","mesh":19},{"translation":[-1.1875,0,0],"name":"r11","children":[29]},{"rotation":[-0.7071067811865475,0,0,0.7071067811865476],"translation":[0,0,1.1875],"name":"r17","mesh":20},{"translation":[0,0,-1.1875],"name":"r17","children":[31]},{"rotation":[-0.2705980500730985,0.27059805007309845,-0.6532814824381882,0.6532814824381883],"name":"r15","mesh":21},{"translation":[0.839689375,0,-0.839689375],"name":"r15","children":[33]},{"rotation":[-0.6532814824381883,0.6532814824381882,-0.2705980500730985,0.27059805007309856],"name":"r13","mesh":22},{"translation":[-0.839689375,0,-0.839689375],"name":"r13","children":[35]},{"rotation":[-0.4999999999999999,-0.5,-0.5,0.5000000000000001],"translation":[-1.1875,0,0],"name":"r16","mesh":23},{"translation":[1.1875,0,0],"name":"r16","children":[37]},{"rotation":[0.6532814824381883,-0.6532814824381882,-0.2705980500730985,0.27059805007309856],"translation":[0.839689375,0,-0.839689375],"name":"r14","mesh":24},{"translation":[-0.839689375,0,0.839689375],"name":"r14","children":[39]},{"rotation":[0.2705980500730985,-0.27059805007309845,-0.6532814824381882,0.6532814824381883],"translation":[-0.839689375,0,-0.839689375],"name":"r12","mesh":25},{"translation":[0.839689375,0,0.839689375],"name":"r12","children":[41]},{"name":"center","children":[30,32,34,36,38,40,42]},{"rotation":[2.3432602026631493e-17,-0.9238795325112867,0.3826834323650898,5.657130561438501e-17],"translation":[0,-0.8396893749999998,0.839689375],"name":"r8","mesh":26},{"translation":[0,0.8396893749999998,-0.839689375],"name":"r8","children":[44]},{"rotation":[0.2705980500730985,-0.6532814824381882,0.27059805007309845,0.6532814824381883],"translation":[0.839689375,-0.8396893749999998,0],"name":"r10","mesh":27},{"translation":[-0.839689375,0.8396893749999998,0],"name":"r10","children":[46]},{"rotation":[0.2705980500730985,0.6532814824381882,-0.27059805007309845,0.6532814824381883],"translation":[-0.839689375,-0.8396893749999998,0],"name":"r6","mesh":28},{"translation":[0.839689375,0.8396893749999998,0],"name":"r6","children":[48]},{"rotation":[0.3826834323650898,0,0,0.9238795325112867],"translation":[0,-0.8396893749999998,-0.839689375],"name":"r4","mesh":29},{"translation":[0,0.8396893749999998,0.839689375],"name":"r4","children":[50]},{"name":"up","children":[45,47,49,51]},{"translation":[0,-2.5,0],"name":"r2","mesh":30},{"translation":[0,1.1875,0],"name":"r2","children":[53]},{"name":"up_up","children":[54]},{"name":"out_layer","children":[19,28,43,52,55]},{"translation":[0,1.3125,0],"name":"base","children":[16,56]},{"name":"base_base","children":[57]},{"name":"bone","children":[14,58]}],"bufferViews":[{"buffer":0,"byteOffset":0,"byteLength":288,"target":34962,"byteStride":12},{"buffer":0,"byteOffset":288,"byteLength":288,"target":34962,"byteStride":12},{"buffer":0,"byteOffset":576,"byteLength":192,"target":34962,"byteStride":8},{"buffer":0,"byteOffset":768,"byteLength":72,"target":34963},{"buffer":0,"byteOffset":840,"byteLength":288,"target":34962,"byteStride":12},{"buffer":0,"byteOffset":1128,"byteLength":288,"target":34962,"byteStride":12},{"buffer":0,"byteOffset":1416,"byteLength":192,"target":34962,"byteStride":8},{"buffer":0,"byteOffset":1608,"byteLength":72,"target":34963},{"buffer":0,"byteOffset":1680,"byteLength":288,"target":34962,"byteStride":12},{"buffer":0,"byteOffset":1968,"byteLength":288,"target":34962,"byteStride":12},{"buffer":0,"byteOffset":2256,"byteLength":192,"target":34962,"byteStride":8},{"buffer":0,"byteOffset":2448,"byteLength":72,"target":34963},{"buffer":0,"byteOffset":2520,"byteLength":288,"target":34962,"byteStride":12},{"buffer":0,"byteOffset":2808,"byteLength":288,"target":34962,"byteStride":12},{"buffer":0,"byteOffset":3096,"byteLength":192,"target":34962,"byteStride":8},{"buffer":0,"byteOffset":3288,"byteLength":72,"target":34963},{"buffer":0,"byteOffset":3360,"byteLength":288,"target":34962,"byteStride":12},{"buffer":0,"byteOffset":3648,"byteLength":288,"target":34962,"byteStride":12},{"buffer":0,"byteOffset":3936,"byteLength":192,"target":34962,"byteStride":8},{"buffer":0,"byteOffset":4128,"byteLength":72,"target":34963},{"buffer":0,"byteOffset":4200,"byteLength":288,"target":34962,"byteStride":12},{"buffer":0,"byteOffset":4488,"byteLength":288,"target":34962,"byteStride":12},{"buffer":0,"byteOffset":4776,"byteLength":192,"target":34962,"byteStride":8},{"buffer":0,"byteOffset":4968,"byteLength":72,"target":34963},{"buffer":0,"byteOffset":5040,"byteLength":288,"target":34962,"byteStride":12},{"buffer":0,"byteOffset":5328,"byteLength":288,"target":34962,"byteStride":12},{"buffer":0,"byteOffset":5616,"byteLength":192,"target":34962,"byteStride":8},{"buffer":0,"byteOffset":5808,"byteLength":72,"target":34963},{"buffer":0,"byteOffset":5880,"byteLength":288,"target":34962,"byteStride":12},{"buffer":0,"byteOffset":6168,"byteLength":288,"target":34962,"byteStride":12},{"buffer":0,"byteOffset":6456,"byteLength":192,"target":34962,"byteStride":8},{"buffer":0,"byteOffset":6648,"byteLength":72,"target":34963},{"buffer":0,"byteOffset":6720,"byteLength":288,"target":34962,"byteStride":12},{"buffer":0,"byteOffset":7008,"byteLength":288,"target":34962,"byteStride":12},{"buffer":0,"byteOffset":7296,"byteLength":192,"target":34962,"byteStride":8},{"buffer":0,"byteOffset":7488,"byteLength":72,"target":34963},{"buffer":0,"byteOffset":7560,"byteLength":288,"target":34962,"byteStride":12},{"buffer":0,"byteOffset":7848,"byteLength":288,"target":34962,"byteStride":12},{"buffer":0,"byteOffset":8136,"byteLength":192,"target":34962,"byteStride":8},{"buffer":0,"byteOffset":8328,"byteLength":72,"target":34963},{"buffer":0,"byteOffset":8400,"byteLength":288,"target":34962,"byteStride":12},{"buffer":0,"byteOffset":8688,"byteLength":288,"target":34962,"byteStride":12},{"buffer":0,"byteOffset":8976,"byteLength":192,"target":34962,"byteStride":8},{"buffer":0,"byteOffset":9168,"byteLength":72,"target":34963},{"buffer":0,"byteOffset":9240,"byteLength":288,"target":34962,"byteStride":12},{"buffer":0,"byteOffset":9528,"byteLength":288,"target":34962,"byteStride":12},{"buffer":0,"byteOffset":9816,"byteLength":192,"target":34962,"byteStride":8},{"buffer":0,"byteOffset":10008,"byteLength":72,"target":34963},{"buffer":0,"byteOffset":10080,"byteLength":288,"target":34962,"byteStride":12},{"buffer":0,"byteOffset":10368,"byteLength":288,"target":34962,"byteStride":12},{"buffer":0,"byteOffset":10656,"byteLength":192,"target":34962,"byteStride":8},{"buffer":0,"byteOffset":10848,"byteLength":72,"target":34963},{"buffer":0,"byteOffset":10920,"byteLength":288,"target":34962,"byteStride":12},{"buffer":0,"byteOffset":11208,"byteLength":288,"target":34962,"byteStride":12},{"buffer":0,"byteOffset":11496,"byteLength":192,"target":34962,"byteStride":8},{"buffer":0,"byteOffset":11688,"byteLength":72,"target":34963},{"buffer":0,"byteOffset":11760,"byteLength":288,"target":34962,"byteStride":12},{"buffer":0,"byteOffset":12048,"byteLength":288,"target":34962,"byteStride":12},{"buffer":0,"byteOffset":12336,"byteLength":192,"target":34962,"byteStride":8},{"buffer":0,"byteOffset":12528,"byteLength":72,"target":34963},{"buffer":0,"byteOffset":12600,"byteLength":288,"target":34962,"byteStride":12},{"buffer":0,"byteOffset":12888,"byteLength":288,"target":34962,"byteStride":12},{"buffer":0,"byteOffset":13176,"byteLength":192,"target":34962,"byteStride":8},{"buffer":0,"byteOffset":13368,"byteLength":72,"target":34963},{"buffer":0,"byteOffset":13440,"byteLength":288,"target":34962,"byteStride":12},{"buffer":0,"byteOffset":13728,"byteLength":288,"target":34962,"byteStride":12},{"buffer":0,"byteOffset":14016,"byteLength":192,"target":34962,"byteStride":8},{"buffer":0,"byteOffset":14208,"byteLength":72,"target":34963},{"buffer":0,"byteOffset":14280,"byteLength":288,"target":34962,"byteStride":12},{"buffer":0,"byteOffset":14568,"byteLength":288,"target":34962,"byteStride":12},{"buffer":0,"byteOffset":14856,"byteLength":192,"target":34962,"byteStride":8},{"buffer":0,"byteOffset":15048,"byteLength":72,"target":34963},{"buffer":0,"byteOffset":15120,"byteLength":288,"target":34962,"byteStride":12},{"buffer":0,"byteOffset":15408,"byteLength":288,"target":34962,"byteStride":12},{"buffer":0,"byteOffset":15696,"byteLength":192,"target":34962,"byteStride":8},{"buffer":0,"byteOffset":15888,"byteLength":72,"target":34963},{"buffer":0,"byteOffset":15960,"byteLength":288,"target":34962,"byteStride":12},{"buffer":0,"byteOffset":16248,"byteLength":288,"target":34962,"byteStride":12},{"buffer":0,"byteOffset":16536,"byteLength":192,"target":34962,"byteStride":8},{"buffer":0,"byteOffset":16728,"byteLength":72,"target":34963},{"buffer":0,"byteOffset":16800,"byteLength":288,"target":34962,"byteStride":12},{"buffer":0,"byteOffset":17088,"byteLength":288,"target":34962,"byteStride":12},{"buffer":0,"byteOffset":17376,"byteLength":192,"target":34962,"byteStride":8},{"buffer":0,"byteOffset":17568,"byteLength":72,"target":34963},{"buffer":0,"byteOffset":17640,"byteLength":288,"target":34962,"byteStride":12},{"buffer":0,"byteOffset":17928,"byteLength":288,"target":34962,"byteStride":12},{"buffer":0,"byteOffset":18216,"byteLength":192,"target":34962,"byteStride":8},{"buffer":0,"byteOffset":18408,"byteLength":72,"target":34963},{"buffer":0,"byteOffset":18480,"byteLength":288,"target":34962,"byteStride":12},{"buffer":0,"byteOffset":18768,"byteLength":288,"target":34962,"byteStride":12},{"buffer":0,"byteOffset":19056,"byteLength":192,"target":34962,"byteStride":8},{"buffer":0,"byteOffset":19248,"byteLength":72,"target":34963},{"buffer":0,"byteOffset":19320,"byteLength":288,"target":34962,"byteStride":12},{"buffer":0,"byteOffset":19608,"byteLength":288,"target":34962,"byteStride":12},{"buffer":0,"byteOffset":19896,"byteLength":192,"target":34962,"byteStride":8},{"buffer":0,"byteOffset":20088,"byteLength":72,"target":34963},{"buffer":0,"byteOffset":20160,"byteLength":288,"target":34962,"byteStride":12},{"buffer":0,"byteOffset":20448,"byteLength":288,"target":34962,"byteStride":12},{"buffer":0,"byteOffset":20736,"byteLength":192,"target":34962,"byteStride":8},{"buffer":0,"byteOffset":20928,"byteLength":72,"target":34963},{"buffer":0,"byteOffset":21000,"byteLength":288,"target":34962,"byteStride":12},{"buffer":0,"byteOffset":21288,"byteLength":288,"target":34962,"byteStride":12},{"buffer":0,"byteOffset":21576,"byteLength":192,"target":34962,"byteStride":8},{"buffer":0,"byteOffset":21768,"byteLength":72,"target":34963},{"buffer":0,"byteOffset":21840,"byteLength":288,"target":34962,"byteStride":12},{"buffer":0,"byteOffset":22128,"byteLength":288,"target":34962,"byteStride":12},{"buffer":0,"byteOffset":22416,"byteLength":192,"target":34962,"byteStride":8},{"buffer":0,"byteOffset":22608,"byteLength":72,"target":34963},{"buffer":0,"byteOffset":22680,"byteLength":288,"target":34962,"byteStride":12},{"buffer":0,"byteOffset":22968,"byteLength":288,"target":34962,"byteStride":12},{"buffer":0,"byteOffset":23256,"byteLength":192,"target":34962,"byteStride":8},{"buffer":0,"byteOffset":23448,"byteLength":72,"target":34963},{"buffer":0,"byteOffset":23520,"byteLength":288,"target":34962,"byteStride":12},{"buffer":0,"byteOffset":23808,"byteLength":288,"target":34962,"byteStride":12},{"buffer":0,"byteOffset":24096,"byteLength":192,"target":34962,"byteStride":8},{"buffer":0,"byteOffset":24288,"byteLength":72,"target":34963},{"buffer":0,"byteOffset":24360,"byteLength":288,"target":34962,"byteStride":12},{"buffer":0,"byteOffset":24648,"byteLength":288,"target":34962,"byteStride":12},{"buffer":0,"byteOffset":24936,"byteLength":192,"target":34962,"byteStride":8},{"buffer":0,"byteOffset":25128,"byteLength":72,"target":34963},{"buffer":0,"byteOffset":25200,"byteLength":288,"target":34962,"byteStride":12},{"buffer":0,"byteOffset":25488,"byteLength":288,"target":34962,"byteStride":12},{"buffer":0,"byteOffset":25776,"byteLength":192,"target":34962,"byteStride":8},{"buffer":0,"byteOffset":25968,"byteLength":72,"target":34963}],"buffers":[{"byteLength":26040,"uri":"data:application/octet-stream;base64,"}],"accessors":[{"bufferView":0,"componentType":5126,"count":24,"max":[0.8125,0.821025013923645,0.7053918838500977],"min":[-0.8125,0.571025013923645,0.45539188385009766],"type":"VEC3"},{"bufferView":1,"componentType":5126,"count":24,"max":[1,1,1],"min":[-1,-1,-1],"type":"VEC3"},{"bufferView":2,"componentType":5126,"count":24,"max":[0.4686279296875,0.0623779296875],"min":[0.0001220703125,0.0001220703125],"type":"VEC2"},{"bufferView":3,"componentType":5123,"count":36,"max":[23],"min":[0],"type":"SCALAR"},{"bufferView":4,"componentType":5126,"count":24,"max":[1.1328362226486206,0.6819949746131897,1.2883243560791016],"min":[0.8828362226486206,0.24449500441551208,1.0383243560791016],"type":"VEC3"},{"bufferView":5,"componentType":5126,"count":24,"max":[1,1,1],"min":[-1,-1,-1],"type":"VEC3"},{"bufferView":6,"componentType":5126,"count":24,"max":[0.7498779296875,0.3436279296875],"min":[0.6251220703125,0.2579345703125],"type":"VEC2"},{"bufferView":7,"componentType":5123,"count":36,"max":[23],"min":[0],"type":"SCALAR"},{"bufferView":8,"componentType":5126,"count":24,"max":[0.5337243676185608,0.9944949746131897,1.2883243560791016],"min":[0.2837243676185608,0.24449500441551208,1.0383243560791016],"type":"VEC3"},{"bufferView":9,"componentType":5126,"count":24,"max":[1,1,1],"min":[-1,-1,-1],"type":"VEC3"},{"bufferView":10,"componentType":5126,"count":24,"max":[0.7498779296875,0.2576904296875],"min":[0.6251220703125,0.1329345703125],"type":"VEC2"},{"bufferView":11,"componentType":5123,"count":36,"max":[23],"min":[0],"type":"SCALAR"},{"bufferView":12,"componentType":5126,"count":24,"max":[1.618971824645996,1.1550768613815308,0.7053918838500977],"min":[-0.006028125062584877,0.9050768613815308,0.45539188385009766],"type":"VEC3"},{"bufferView":13,"componentType":5126,"count":24,"max":[1,1,1],"min":[-1,-1,-1],"type":"VEC3"},{"bufferView":14,"componentType":5126,"count":24,"max":[0.4686279296875,0.9998779296875],"min":[0.0001220703125,0.9376220703125],"type":"VEC2"},{"bufferView":15,"componentType":5123,"count":36,"max":[23],"min":[0],"type":"SCALAR"},{"bufferView":16,"componentType":5126,"count":24,"max":[-0.5625,0.20406374335289001,-0.6775687336921692],"min":[-0.8125,-0.42093625664711,-0.9275687336921692],"type":"VEC3"},{"bufferView":17,"componentType":5126,"count":24,"max":[1,1,1],"min":[-1,-1,-1],"type":"VEC3"},{"bufferView":18,"componentType":5126,"count":24,"max":[0.3748779296875,0.7342529296875],"min":[0.2501220703125,0.6251220703125],"type":"VEC2"},{"bufferView":19,"componentType":5123,"count":36,"max":[23],"min":[0],"type":"SCALAR"},{"bufferView":20,"componentType":5126,"count":24,"max":[-0.5625,0.9862943887710571,1.028049349784851],"min":[-0.8125,-0.07620562613010406,0.7780493497848511],"type":"VEC3"},{"bufferView":21,"componentType":5126,"count":24,"max":[1,1,1],"min":[-1,-1,-1],"type":"VEC3"},{"bufferView":22,"componentType":5126,"count":24,"max":[0.2498779296875,0.7811279296875],"min":[0.1251220703125,0.6173095703125],"type":"VEC2"},{"bufferView":23,"componentType":5123,"count":36,"max":[23],"min":[0],"type":"SCALAR"},{"bufferView":24,"componentType":5126,"count":24,"max":[-0.2837243676185608,0.9944949746131897,1.2883243560791016],"min":[-0.5337243676185608,0.24449500441551208,1.0383243560791016],"type":"VEC3"},{"bufferView":25,"componentType":5126,"count":24,"max":[1,1,1],"min":[-1,-1,-1],"type":"VEC3"},{"bufferView":26,"componentType":5126,"count":24,"max":[0.7498779296875,0.2576904296875],"min":[0.6251220703125,0.1329345703125],"type":"VEC2"},{"bufferView":27,"componentType":5123,"count":36,"max":[23],"min":[0],"type":"SCALAR"},{"bufferView":28,"componentType":5126,"count":24,"max":[-0.8828362226486206,0.6819949746131897,1.2883243560791016],"min":[-1.1328362226486206,0.24449500441551208,1.0383243560791016],"type":"VEC3"},{"bufferView":29,"componentType":5126,"count":24,"max":[1,1,1],"min":[-1,-1,-1],"type":"VEC3"},{"bufferView":30,"componentType":5126,"count":24,"max":[0.7498779296875,0.3436279296875],"min":[0.6251220703125,0.2579345703125],"type":"VEC2"},{"bufferView":31,"componentType":5123,"count":36,"max":[23],"min":[0],"type":"SCALAR"},{"bufferView":32,"componentType":5126,"count":24,"max":[0.006028125062584877,1.1550768613815308,0.7053918838500977],"min":[-1.618971824645996,0.9050768613815308,0.45539188385009766],"type":"VEC3"},{"bufferView":33,"componentType":5126,"count":24,"max":[1,1,1],"min":[-1,-1,-1],"type":"VEC3"},{"bufferView":34,"componentType":5126,"count":24,"max":[0.4686279296875,0.9295654296875],"min":[0.0001220703125,0.8673095703125],"type":"VEC2"},{"bufferView":35,"componentType":5123,"count":36,"max":[23],"min":[0],"type":"SCALAR"},{"bufferView":36,"componentType":5126,"count":24,"max":[0.125,1.4237943887710571,1.028049349784851],"min":[-0.125,-0.07620562613010406,0.7780493497848511],"type":"VEC3"},{"bufferView":37,"componentType":5126,"count":24,"max":[1,1,1],"min":[-1,-1,-1],"type":"VEC3"},{"bufferView":38,"componentType":5126,"count":24,"max":[0.6248779296875,0.6092529296875],"min":[0.5001220703125,0.3907470703125],"type":"VEC2"},{"bufferView":39,"componentType":5123,"count":36,"max":[23],"min":[0],"type":"SCALAR"},{"bufferView":40,"componentType":5126,"count":24,"max":[0.125,0.39156374335289,-0.6775687336921692],"min":[-0.125,-0.42093625664711,-0.9275687336921692],"type":"VEC3"},{"bufferView":41,"componentType":5126,"count":24,"max":[1,1,1],"min":[-1,-1,-1],"type":"VEC3"},{"bufferView":42,"componentType":5126,"count":24,"max":[0.7498779296875,0.1326904296875],"min":[0.6251220703125,0.0001220703125],"type":"VEC2"},{"bufferView":43,"componentType":5123,"count":36,"max":[23],"min":[0],"type":"SCALAR"},{"bufferView":44,"componentType":5126,"count":24,"max":[0.8125,0.9862943887710571,1.028049349784851],"min":[0.5625,-0.07620562613010406,0.7780493497848511],"type":"VEC3"},{"bufferView":45,"componentType":5126,"count":24,"max":[1,1,1],"min":[-1,-1,-1],"type":"VEC3"},{"bufferView":46,"componentType":5126,"count":24,"max":[0.1248779296875,0.7811279296875],"min":[0.0001220703125,0.6173095703125],"type":"VEC2"},{"bufferView":47,"componentType":5123,"count":36,"max":[23],"min":[0],"type":"SCALAR"},{"bufferView":48,"componentType":5126,"count":24,"max":[0.8125,0.20406374335289001,-0.6775687336921692],"min":[0.5625,-0.42093625664711,-0.9275687336921692],"type":"VEC3"},{"bufferView":49,"componentType":5126,"count":24,"max":[1,1,1],"min":[-1,-1,-1],"type":"VEC3"},{"bufferView":50,"componentType":5126,"count":24,"max":[0.3748779296875,0.7342529296875],"min":[0.2501220703125,0.6251220703125],"type":"VEC2"},{"bufferView":51,"componentType":5123,"count":36,"max":[23],"min":[0],"type":"SCALAR"},{"bufferView":52,"componentType":5126,"count":24,"max":[0.25,1.5625,0.25],"min":[-0.25,1.0625,-0.25],"type":"VEC3"},{"bufferView":53,"componentType":5126,"count":24,"max":[1,1,1],"min":[-1,-1,-1],"type":"VEC3"},{"bufferView":54,"componentType":5126,"count":24,"max":[0.2498779296875,0.5155029296875],"min":[0.0001220703125,0.3907470703125],"type":"VEC2"},{"bufferView":55,"componentType":5123,"count":36,"max":[23],"min":[0],"type":"SCALAR"},{"bufferView":56,"componentType":5126,"count":24,"max":[0.3125,0.125,0.3125],"min":[-0.3125,-0.125,-0.3125],"type":"VEC3"},{"bufferView":57,"componentType":5126,"count":24,"max":[1,1,1],"min":[-1,-1,-1],"type":"VEC3"},{"bufferView":58,"componentType":5126,"count":24,"max":[0.3123779296875,0.1717529296875],"min":[0.0001220703125,0.0626220703125],"type":"VEC2"},{"bufferView":59,"componentType":5123,"count":36,"max":[23],"min":[0],"type":"SCALAR"},{"bufferView":60,"componentType":5126,"count":24,"max":[0.3125,0.125,0.3125],"min":[-0.3125,-0.125,-0.3125],"type":"VEC3"},{"bufferView":61,"componentType":5126,"count":24,"max":[1,1,1],"min":[-1,-1,-1],"type":"VEC3"},{"bufferView":62,"componentType":5126,"count":24,"max":[0.3123779296875,0.2811279296875],"min":[0.0001220703125,0.1719970703125],"type":"VEC2"},{"bufferView":63,"componentType":5123,"count":36,"max":[23],"min":[0],"type":"SCALAR"},{"bufferView":64,"componentType":5126,"count":24,"max":[0.3125,0.125,0.3125],"min":[-0.3125,-0.125,-0.3125],"type":"VEC3"},{"bufferView":65,"componentType":5126,"count":24,"max":[1,1,1],"min":[-1,-1,-1],"type":"VEC3"},{"bufferView":66,"componentType":5126,"count":24,"max":[0.3123779296875,0.3905029296875],"min":[0.0001220703125,0.2813720703125],"type":"VEC2"},{"bufferView":67,"componentType":5123,"count":36,"max":[23],"min":[0],"type":"SCALAR"},{"bufferView":68,"componentType":5126,"count":24,"max":[0.3125,0.125,0.3125],"min":[-0.3125,-0.125,-0.3125],"type":"VEC3"},{"bufferView":69,"componentType":5126,"count":24,"max":[1,1,1],"min":[-1,-1,-1],"type":"VEC3"},{"bufferView":70,"componentType":5126,"count":24,"max":[0.6248779296875,0.1717529296875],"min":[0.3126220703125,0.0626220703125],"type":"VEC2"},{"bufferView":71,"componentType":5123,"count":36,"max":[23],"min":[0],"type":"SCALAR"},{"bufferView":72,"componentType":5126,"count":24,"max":[0.3125,0.125,0.3125],"min":[-0.3125,-0.125,-0.3125],"type":"VEC3"},{"bufferView":73,"componentType":5126,"count":24,"max":[1,1,1],"min":[-1,-1,-1],"type":"VEC3"},{"bufferView":74,"componentType":5126,"count":24,"max":[0.6248779296875,0.2811279296875],"min":[0.3126220703125,0.1719970703125],"type":"VEC2"},{"bufferView":75,"componentType":5123,"count":36,"max":[23],"min":[0],"type":"SCALAR"},{"bufferView":76,"componentType":5126,"count":24,"max":[0.3125,0.125,0.3125],"min":[-0.3125,-0.125,-0.3125],"type":"VEC3"},{"bufferView":77,"componentType":5126,"count":24,"max":[1,1,1],"min":[-1,-1,-1],"type":"VEC3"},{"bufferView":78,"componentType":5126,"count":24,"max":[0.3123779296875,0.1717529296875],"min":[0.0001220703125,0.0626220703125],"type":"VEC2"},{"bufferView":79,"componentType":5123,"count":36,"max":[23],"min":[0],"type":"SCALAR"},{"bufferView":80,"componentType":5126,"count":24,"max":[0.3125,1.3125,0.3125],"min":[-0.3125,1.0625,-0.3125],"type":"VEC3"},{"bufferView":81,"componentType":5126,"count":24,"max":[1,1,1],"min":[-1,-1,-1],"type":"VEC3"},{"bufferView":82,"componentType":5126,"count":24,"max":[0.6248779296875,0.3905029296875],"min":[0.3126220703125,0.2813720703125],"type":"VEC2"},{"bufferView":83,"componentType":5123,"count":36,"max":[23],"min":[0],"type":"SCALAR"},{"bufferView":84,"componentType":5126,"count":24,"max":[0.3125,0.125,0.3125],"min":[-0.3125,-0.125,-0.3125],"type":"VEC3"},{"bufferView":85,"componentType":5126,"count":24,"max":[1,1,1],"min":[-1,-1,-1],"type":"VEC3"},{"bufferView":86,"componentType":5126,"count":24,"max":[0.6248779296875,0.2811279296875],"min":[0.3126220703125,0.1719970703125],"type":"VEC2"},{"bufferView":87,"componentType":5123,"count":36,"max":[23],"min":[0],"type":"SCALAR"},{"bufferView":88,"componentType":5126,"count":24,"max":[0.3125,0.125,0.3125],"min":[-0.3125,-0.125,-0.3125],"type":"VEC3"},{"bufferView":89,"componentType":5126,"count":24,"max":[1,1,1],"min":[-1,-1,-1],"type":"VEC3"},{"bufferView":90,"componentType":5126,"count":24,"max":[0.6248779296875,0.1717529296875],"min":[0.3126220703125,0.0626220703125],"type":"VEC2"},{"bufferView":91,"componentType":5123,"count":36,"max":[23],"min":[0],"type":"SCALAR"},{"bufferView":92,"componentType":5126,"count":24,"max":[0.3125,1.3125,0.3125],"min":[-0.3125,1.0625,-0.3125],"type":"VEC3"},{"bufferView":93,"componentType":5126,"count":24,"max":[1,1,1],"min":[-1,-1,-1],"type":"VEC3"},{"bufferView":94,"componentType":5126,"count":24,"max":[0.3123779296875,0.1717529296875],"min":[0.0001220703125,0.0626220703125],"type":"VEC2"},{"bufferView":95,"componentType":5123,"count":36,"max":[23],"min":[0],"type":"SCALAR"},{"bufferView":96,"componentType":5126,"count":24,"max":[0.3125,1.3125,0.3125],"min":[-0.3125,1.0625,-0.3125],"type":"VEC3"},{"bufferView":97,"componentType":5126,"count":24,"max":[1,1,1],"min":[-1,-1,-1],"type":"VEC3"},{"bufferView":98,"componentType":5126,"count":24,"max":[0.6248779296875,0.1717529296875],"min":[0.3126220703125,0.0626220703125],"type":"VEC2"},{"bufferView":99,"componentType":5123,"count":36,"max":[23],"min":[0],"type":"SCALAR"},{"bufferView":100,"componentType":5126,"count":24,"max":[0.3125,1.3125,0.3125],"min":[-0.3125,1.0625,-0.3125],"type":"VEC3"},{"bufferView":101,"componentType":5126,"count":24,"max":[1,1,1],"min":[-1,-1,-1],"type":"VEC3"},{"bufferView":102,"componentType":5126,"count":24,"max":[0.3123779296875,0.2811279296875],"min":[0.0001220703125,0.1719970703125],"type":"VEC2"},{"bufferView":103,"componentType":5123,"count":36,"max":[23],"min":[0],"type":"SCALAR"},{"bufferView":104,"componentType":5126,"count":24,"max":[0.3125,1.3125,0.3125],"min":[-0.3125,1.0625,-0.3125],"type":"VEC3"},{"bufferView":105,"componentType":5126,"count":24,"max":[1,1,1],"min":[-1,-1,-1],"type":"VEC3"},{"bufferView":106,"componentType":5126,"count":24,"max":[0.3123779296875,0.3905029296875],"min":[0.0001220703125,0.2813720703125],"type":"VEC2"},{"bufferView":107,"componentType":5123,"count":36,"max":[23],"min":[0],"type":"SCALAR"},{"bufferView":108,"componentType":5126,"count":24,"max":[0.3125,1.3125,0.3125],"min":[-0.3125,1.0625,-0.3125],"type":"VEC3"},{"bufferView":109,"componentType":5126,"count":24,"max":[1,1,1],"min":[-1,-1,-1],"type":"VEC3"},{"bufferView":110,"componentType":5126,"count":24,"max":[0.3123779296875,0.2811279296875],"min":[0.0001220703125,0.1719970703125],"type":"VEC2"},{"bufferView":111,"componentType":5123,"count":36,"max":[23],"min":[0],"type":"SCALAR"},{"bufferView":112,"componentType":5126,"count":24,"max":[0.3125,1.3125,0.3125],"min":[-0.3125,1.0625,-0.3125],"type":"VEC3"},{"bufferView":113,"componentType":5126,"count":24,"max":[1,1,1],"min":[-1,-1,-1],"type":"VEC3"},{"bufferView":114,"componentType":5126,"count":24,"max":[0.6248779296875,0.1717529296875],"min":[0.3126220703125,0.0626220703125],"type":"VEC2"},{"bufferView":115,"componentType":5123,"count":36,"max":[23],"min":[0],"type":"SCALAR"},{"bufferView":116,"componentType":5126,"count":24,"max":[0.3125,1.3125,0.3125],"min":[-0.3125,1.0625,-0.3125],"type":"VEC3"},{"bufferView":117,"componentType":5126,"count":24,"max":[1,1,1],"min":[-1,-1,-1],"type":"VEC3"},{"bufferView":118,"componentType":5126,"count":24,"max":[0.6248779296875,0.1717529296875],"min":[0.3126220703125,0.0626220703125],"type":"VEC2"},{"bufferView":119,"componentType":5123,"count":36,"max":[23],"min":[0],"type":"SCALAR"},{"bufferView":120,"componentType":5126,"count":24,"max":[0.3125,2.625,0.3125],"min":[-0.3125,2.375,-0.3125],"type":"VEC3"},{"bufferView":121,"componentType":5126,"count":24,"max":[1,1,1],"min":[-1,-1,-1],"type":"VEC3"},{"bufferView":122,"componentType":5126,"count":24,"max":[0.3123779296875,0.1717529296875],"min":[0.0001220703125,0.0626220703125],"type":"VEC2"},{"bufferView":123,"componentType":5123,"count":36,"max":[23],"min":[0],"type":"SCALAR"}],"materials":[{"pbrMetallicRoughness":{"metallicFactor":0,"roughnessFactor":1},"alphaMode":"MASK","alphaCutoff":0.05,"doubleSided":true},{"pbrMetallicRoughness":{"metallicFactor":0,"roughnessFactor":1},"alphaMode":"MASK","alphaCutoff":0.05,"doubleSided":true},{"pbrMetallicRoughness":{"metallicFactor":0,"roughnessFactor":1},"alphaMode":"MASK","alphaCutoff":0.05,"doubleSided":true},{"pbrMetallicRoughness":{"metallicFactor":0,"roughnessFactor":1},"alphaMode":"MASK","alphaCutoff":0.05,"doubleSided":true},{"pbrMetallicRoughness":{"metallicFactor":0,"roughnessFactor":1},"alphaMode":"MASK","alphaCutoff":0.05,"doubleSided":true},{"pbrMetallicRoughness":{"metallicFactor":0,"roughnessFactor":1},"alphaMode":"MASK","alphaCutoff":0.05,"doubleSided":true},{"pbrMetallicRoughness":{"metallicFactor":0,"roughnessFactor":1},"alphaMode":"MASK","alphaCutoff":0.05,"doubleSided":true},{"pbrMetallicRoughness":{"metallicFactor":0,"roughnessFactor":1},"alphaMode":"MASK","alphaCutoff":0.05,"doubleSided":true},{"pbrMetallicRoughness":{"metallicFactor":0,"roughnessFactor":1},"alphaMode":"MASK","alphaCutoff":0.05,"doubleSided":true},{"pbrMetallicRoughness":{"metallicFactor":0,"roughnessFactor":1},"alphaMode":"MASK","alphaCutoff":0.05,"doubleSided":true}],"meshes":[{"primitives":[{"mode":4,"attributes":{"POSITION":0,"NORMAL":1,"TEXCOORD_0":2},"indices":3,"material":0}]},{"primitives":[{"mode":4,"attributes":{"POSITION":4,"NORMAL":5,"TEXCOORD_0":6},"indices":7,"material":0}]},{"primitives":[{"mode":4,"attributes":{"POSITION":8,"NORMAL":9,"TEXCOORD_0":10},"indices":11,"material":0}]},{"primitives":[{"mode":4,"attributes":{"POSITION":12,"NORMAL":13,"TEXCOORD_0":14},"indices":15,"material":0}]},{"primitives":[{"mode":4,"attributes":{"POSITION":16,"NORMAL":17,"TEXCOORD_0":18},"indices":19,"material":0}]},{"primitives":[{"mode":4,"attributes":{"POSITION":20,"NORMAL":21,"TEXCOORD_0":22},"indices":23,"material":0}]},{"primitives":[{"mode":4,"attributes":{"POSITION":24,"NORMAL":25,"TEXCOORD_0":26},"indices":27,"material":0}]},{"primitives":[{"mode":4,"attributes":{"POSITION":28,"NORMAL":29,"TEXCOORD_0":30},"indices":31,"material":0}]},{"primitives":[{"mode":4,"attributes":{"POSITION":32,"NORMAL":33,"TEXCOORD_0":34},"indices":35,"material":0}]},{"primitives":[{"mode":4,"attributes":{"POSITION":36,"NORMAL":37,"TEXCOORD_0":38},"indices":39,"material":0}]},{"primitives":[{"mode":4,"attributes":{"POSITION":40,"NORMAL":41,"TEXCOORD_0":42},"indices":43,"material":0}]},{"primitives":[{"mode":4,"attributes":{"POSITION":44,"NORMAL":45,"TEXCOORD_0":46},"indices":47,"material":0}]},{"primitives":[{"mode":4,"attributes":{"POSITION":48,"NORMAL":49,"TEXCOORD_0":50},"indices":51,"material":0}]},{"primitives":[{"mode":4,"attributes":{"POSITION":52,"NORMAL":53,"TEXCOORD_0":54},"indices":55,"material":1}]},{"primitives":[{"mode":4,"attributes":{"POSITION":56,"NORMAL":57,"TEXCOORD_0":58},"indices":59,"material":2}]},{"primitives":[{"mode":4,"attributes":{"POSITION":60,"NORMAL":61,"TEXCOORD_0":62},"indices":63,"material":3}]},{"primitives":[{"mode":4,"attributes":{"POSITION":64,"NORMAL":65,"TEXCOORD_0":66},"indices":67,"material":4}]},{"primitives":[{"mode":4,"attributes":{"POSITION":68,"NORMAL":69,"TEXCOORD_0":70},"indices":71,"material":0}]},{"primitives":[{"mode":4,"attributes":{"POSITION":72,"NORMAL":73,"TEXCOORD_0":74},"indices":75,"material":5}]},{"primitives":[{"mode":4,"attributes":{"POSITION":76,"NORMAL":77,"TEXCOORD_0":78},"indices":79,"material":1}]},{"primitives":[{"mode":4,"attributes":{"POSITION":80,"NORMAL":81,"TEXCOORD_0":82},"indices":83,"material":6}]},{"primitives":[{"mode":4,"attributes":{"POSITION":84,"NORMAL":85,"TEXCOORD_0":86},"indices":87,"material":7}]},{"primitives":[{"mode":4,"attributes":{"POSITION":88,"NORMAL":89,"TEXCOORD_0":90},"indices":91,"material":2}]},{"primitives":[{"mode":4,"attributes":{"POSITION":92,"NORMAL":93,"TEXCOORD_0":94},"indices":95,"material":8}]},{"primitives":[{"mode":4,"attributes":{"POSITION":96,"NORMAL":97,"TEXCOORD_0":98},"indices":99,"material":3}]},{"primitives":[{"mode":4,"attributes":{"POSITION":100,"NORMAL":101,"TEXCOORD_0":102},"indices":103,"material":4}]},{"primitives":[{"mode":4,"attributes":{"POSITION":104,"NORMAL":105,"TEXCOORD_0":106},"indices":107,"material":5}]},{"primitives":[{"mode":4,"attributes":{"POSITION":108,"NORMAL":109,"TEXCOORD_0":110},"indices":111,"material":9}]},{"primitives":[{"mode":4,"attributes":{"POSITION":112,"NORMAL":113,"TEXCOORD_0":114},"indices":115,"material":1}]},{"primitives":[{"mode":4,"attributes":{"POSITION":116,"NORMAL":117,"TEXCOORD_0":118},"indices":119,"material":6}]},{"primitives":[{"mode":4,"attributes":{"POSITION":120,"NORMAL":121,"TEXCOORD_0":122},"indices":123,"material":2}]}]}