{"asset":{"version":"2.0","generator":"Blockbench 5.1.5 glTF exporter"},"scenes":[{"nodes":[78],"name":"blockbench_export"}],"scene":0,"nodes":[{"translation":[-0.25,-0.3125,0],"name":"leg_right_boot","mesh":0},{"translation":[-0.25,-0.3125,0],"name":"leg_right_boot","mesh":1},{"translation":[-0.25,-0.3125,0],"name":"leg_right_boot","mesh":2},{"rotation":[0,0.23768589232617307,0,0.9713420698132614],"translation":[0.15625,-0.1875,0.0625],"name":"leg_right_boot","mesh":3},{"rotation":[0,-0.23768589232617307,0,0.9713420698132614],"translation":[-0.15625,-0.1875,0.0625],"name":"leg_right_boot","mesh":4},{"translation":[-0.25,-0.3125,0],"name":"leg_right_boot","mesh":5},{"translation":[0,-1.3125,0],"name":"leg_right_boot","children":[0,1,2,3,4,5]},{"translation":[-0.25,-1.625,0],"name":"leg_right","mesh":6},{"translation":[-0.25,-1.625,0],"name":"leg_right","mesh":7},{"translation":[-0.25,-1.0625,0],"name":"leg_right_lower","mesh":8},{"translation":[-0.25,-1.0625,0],"name":"leg_right_lower","mesh":9},{"translation":[0,-0.5625,0],"name":"leg_right_lower","children":[9,10]},{"name":"leg_right","children":[7,8,11]},{"translation":[-0.25,-1.625,0],"name":"leg_right_control_start","mesh":10},{"name":"leg_right_control_start","children":[13]},{"translation":[0,-1.3125,0],"name":"leg_right_control_end"},{"translation":[0.25,-0.125,0],"name":"leg_right_holder","children":[6,12,14,15]},{"translation":[0.25,-0.3125,0],"name":"leg_left_boot","mesh":11},{"translation":[0.25,-0.3125,0],"name":"leg_left_boot","mesh":12},{"rotation":[0,-0.23768589232617307,0,0.9713420698132614],"translation":[-0.15625,-0.1875,0.0625],"name":"leg_left_boot","mesh":13},{"rotation":[0,0.23768589232617307,0,0.9713420698132614],"translation":[0.15625,-0.1875,0.0625],"name":"leg_left_boot","mesh":14},{"translation":[0.25,-0.3125,0],"name":"leg_left_boot","mesh":15},{"translation":[0.25,-0.3125,0],"name":"leg_left_boot","mesh":16},{"translation":[0,-1.3125,0],"name":"leg_left_boot","children":[17,18,19,20,21,22]},{"rotation":[0,-1,0,6.123233995736766e-17],"translation":[-0.03125,-0.1875,0],"name":"leg_left","mesh":17},{"translation":[0.25,-1.625,0],"name":"leg_left","mesh":18},{"translation":[0.25,-1.0625,0],"name":"leg_left_lower","mesh":19},{"translation":[0.25,-1.0625,0],"name":"leg_left_lower","mesh":20},{"translation":[0,-0.5625,0],"name":"leg_left_lower","children":[26,27]},{"name":"leg_left","children":[24,25,28]},{"translation":[0.25,-1.625,0],"name":"leg_left_control_start","mesh":21},{"name":"leg_left_control_start","children":[30]},{"translation":[0,-1.3125,0],"name":"leg_left_control_end"},{"translation":[-0.25,-0.125,0],"name":"leg_left_holder","children":[23,29,31,32]},{"translation":[0,1.75,0],"name":"waist","children":[16,33]},{"translation":[0,-1.75,0],"name":"chest","mesh":22},{"translation":[0,-1.75,0],"name":"chest","mesh":23},{"translation":[0,-1.75,0],"name":"chest","mesh":24},{"rotation":[0,0,0.25881904510252074,0.9659258262890683],"translation":[0.5625,0.453125,0.03125],"name":"chest","mesh":25},{"rotation":[0,0,0.25881904510252074,0.9659258262890683],"translation":[0.59375,0.703125,0.03125],"name":"chest","mesh":26},{"rotation":[-0.25881904510252074,-0.9659258262890683,5.914589856893349e-17,1.5848095757158825e-17],"translation":[-0.53125,0.203125,0.03125],"name":"chest","mesh":27},{"rotation":[-0.25881904510252074,-0.9659258262890683,5.914589856893349e-17,1.5848095757158825e-17],"translation":[-0.5625,0.453125,0.03125],"name":"chest","mesh":28},{"rotation":[-0.25881904510252074,-0.9659258262890683,5.914589856893349e-17,1.5848095757158825e-17],"translation":[-0.59375,0.703125,0.03125],"name":"chest","mesh":29},{"rotation":[0,0,0.25881904510252074,0.9659258262890683],"translation":[0.53125,0.203125,0.03125],"name":"chest","mesh":30},{"translation":[0,-3.0625,-0.03125],"name":"head","mesh":31},{"rotation":[0,0.3826834323650898,0,0.9238795325112867],"translation":[0.34375,0.0625,-0.21875],"name":"head","mesh":32},{"rotation":[0,-0.3826834323650898,0,0.9238795325112867],"translation":[-0.34375,0.0625,-0.21875],"name":"head","mesh":33},{"rotation":[0,-0.17364817766693033,0,0.984807753012208],"translation":[-0.28125,0.25,0],"name":"head","mesh":34},{"rotation":[0,0.19509032201612825,0,0.9807852804032304],"translation":[0.28125,0.25,0],"name":"head","mesh":35},{"translation":[0,-3.0625,-0.03125],"name":"head","mesh":36},{"translation":[0,1.3125,0.03125],"name":"head","children":[44,45,46,47,48,49]},{"rotation":[0,-1,0,6.123233995736766e-17],"translation":[-0.03125,-0.625,0],"name":"arm_left","mesh":37},{"rotation":[0,-1,0,6.123233995736766e-17],"translation":[-0.03125,-0.625,0],"name":"arm_left","mesh":38},{"rotation":[0,-1,0,6.123233995736766e-17],"translation":[-0.03125,-0.625,0],"name":"arm_left","mesh":39},{"translation":[0.875,-2.3125,0],"name":"arm_left_lower","mesh":40},{"rotation":[0,-1,0,6.123233995736766e-17],"translation":[-0.03125,-0.0625,0],"name":"arm_left_lower","mesh":41},{"rotation":[0,-1,0,6.123233995736766e-17],"translation":[-0.03125,-0.0625,0],"name":"arm_left_lower","mesh":42},{"rotation":[0,-1,0,6.123233995736766e-17],"translation":[-0.03125,0.5625,0],"name":"arm_left_knuckles","mesh":43},{"rotation":[0,-1,0,6.123233995736766e-17],"translation":[-0.03125,0.5625,0],"name":"arm_left_knuckles","mesh":44},{"translation":[0.875,-1.375,0],"name":"ice_sword_place","mesh":45},{"rotation":[-0.7071067811865475,0,0,0.7071067811865476],"translation":[0,-0.3125,0],"name":"ice_sword_place","children":[59]},{"translation":[0,-0.625,0],"name":"arm_left_knuckles","children":[57,58,60]},{"translation":[0,-0.5625,0],"name":"arm_left_lower","children":[54,55,56,61]},{"translation":[-0.875,1.125,0],"name":"arm_left","children":[51,52,53,62]},{"translation":[-0.875,-2.875,0],"name":"arm_right","mesh":46},{"translation":[-0.875,-2.875,0],"name":"arm_right","mesh":47},{"translation":[-0.875,-2.875,0],"name":"arm_right","mesh":48},{"translation":[-0.875,-2.3125,0],"name":"arm_right_lower","mesh":49},{"translation":[-0.875,-2.3125,0],"name":"arm_right_lower","mesh":50},{"translation":[-0.875,-2.3125,0],"name":"arm_right_lower","mesh":51},{"translation":[-0.875,-1.6875,0],"name":"arm_right_knuckles","mesh":52},{"translation":[-0.875,-1.6875,0],"name":"arm_right_knuckles","mesh":53},{"translation":[-0.875,-1.375,0],"name":"fire_sword_place","mesh":54},{"rotation":[-0.7071067811865475,0,0,0.7071067811865476],"translation":[0,-0.3125,0],"name":"fire_sword_place","children":[72]},{"translation":[0,-0.625,0],"name":"arm_right_knuckles","children":[70,71,73]},{"translation":[0,-0.5625,0],"name":"arm_right_lower","children":[67,68,69,74]},{"translation":[0.875,1.125,0],"name":"arm_right","children":[64,65,66,75]},{"translation":[0,1.75,0],"name":"chest","children":[35,36,37,38,39,40,41,42,43,50,63,76]},{"rotation":[0,-1,0,6.123233995736766e-17],"name":"main","children":[34,77]}],"bufferViews":[{"buffer":0,"byteOffset":0,"byteLength":288,"target":34962,"byteStride":12},{"buffer":0,"byteOffset":288,"byteLength":288,"target":34962,"byteStride":12},{"buffer":0,"byteOffset":576,"byteLength":192,"target":34962,"byteStride":8},{"buffer":0,"byteOffset":768,"byteLength":72,"target":34963},{"buffer":0,"byteOffset":840,"byteLength":288,"target":34962,"byteStride":12},{"buffer":0,"byteOffset":1128,"byteLength":288,"target":34962,"byteStride":12},{"buffer":0,"byteOffset":1416,"byteLength":192,"target":34962,"byteStride":8},{"buffer":0,"byteOffset":1608,"byteLength":72,"target":34963},{"buffer":0,"byteOffset":1680,"byteLength":288,"target":34962,"byteStride":12},{"buffer":0,"byteOffset":1968,"byteLength":288,"target":34962,"byteStride":12},{"buffer":0,"byteOffset":2256,"byteLength":192,"target":34962,"byteStride":8},{"buffer":0,"byteOffset":2448,"byteLength":72,"target":34963},{"buffer":0,"byteOffset":2520,"byteLength":288,"target":34962,"byteStride":12},{"buffer":0,"byteOffset":2808,"byteLength":288,"target":34962,"byteStride":12},{"buffer":0,"byteOffset":3096,"byteLength":192,"target":34962,"byteStride":8},{"buffer":0,"byteOffset":3288,"byteLength":72,"target":34963},{"buffer":0,"byteOffset":3360,"byteLength":288,"target":34962,"byteStride":12},{"buffer":0,"byteOffset":3648,"byteLength":288,"target":34962,"byteStride":12},{"buffer":0,"byteOffset":3936,"byteLength":192,"target":34962,"byteStride":8},{"buffer":0,"byteOffset":4128,"byteLength":72,"target":34963},{"buffer":0,"byteOffset":4200,"byteLength":288,"target":34962,"byteStride":12},{"buffer":0,"byteOffset":4488,"byteLength":288,"target":34962,"byteStride":12},{"buffer":0,"byteOffset":4776,"byteLength":192,"target":34962,"byteStride":8},{"buffer":0,"byteOffset":4968,"byteLength":72,"target":34963},{"buffer":0,"byteOffset":5040,"byteLength":288,"target":34962,"byteStride":12},{"buffer":0,"byteOffset":5328,"byteLength":288,"target":34962,"byteStride":12},{"buffer":0,"byteOffset":5616,"byteLength":192,"target":34962,"byteStride":8},{"buffer":0,"byteOffset":5808,"byteLength":72,"target":34963},{"buffer":0,"byteOffset":5880,"byteLength":288,"target":34962,"byteStride":12},{"buffer":0,"byteOffset":6168,"byteLength":288,"target":34962,"byteStride":12},{"buffer":0,"byteOffset":6456,"byteLength":192,"target":34962,"byteStride":8},{"buffer":0,"byteOffset":6648,"byteLength":72,"target":34963},{"buffer":0,"byteOffset":6720,"byteLength":288,"target":34962,"byteStride":12},{"buffer":0,"byteOffset":7008,"byteLength":288,"target":34962,"byteStride":12},{"buffer":0,"byteOffset":7296,"byteLength":192,"target":34962,"byteStride":8},{"buffer":0,"byteOffset":7488,"byteLength":72,"target":34963},{"buffer":0,"byteOffset":7560,"byteLength":288,"target":34962,"byteStride":12},{"buffer":0,"byteOffset":7848,"byteLength":288,"target":34962,"byteStride":12},{"buffer":0,"byteOffset":8136,"byteLength":192,"target":34962,"byteStride":8},{"buffer":0,"byteOffset":8328,"byteLength":72,"target":34963},{"buffer":0,"byteOffset":8400,"byteLength":288,"target":34962,"byteStride":12},{"buffer":0,"byteOffset":8688,"byteLength":288,"target":34962,"byteStride":12},{"buffer":0,"byteOffset":8976,"byteLength":192,"target":34962,"byteStride":8},{"buffer":0,"byteOffset":9168,"byteLength":72,"target":34963},{"buffer":0,"byteOffset":9240,"byteLength":288,"target":34962,"byteStride":12},{"buffer":0,"byteOffset":9528,"byteLength":288,"target":34962,"byteStride":12},{"buffer":0,"byteOffset":9816,"byteLength":192,"target":34962,"byteStride":8},{"buffer":0,"byteOffset":10008,"byteLength":72,"target":34963},{"buffer":0,"byteOffset":10080,"byteLength":288,"target":34962,"byteStride":12},{"buffer":0,"byteOffset":10368,"byteLength":288,"target":34962,"byteStride":12},{"buffer":0,"byteOffset":10656,"byteLength":192,"target":34962,"byteStride":8},{"buffer":0,"byteOffset":10848,"byteLength":72,"target":34963},{"buffer":0,"byteOffset":10920,"byteLength":288,"target":34962,"byteStride":12},{"buffer":0,"byteOffset":11208,"byteLength":288,"target":34962,"byteStride":12},{"buffer":0,"byteOffset":11496,"byteLength":192,"target":34962,"byteStride":8},{"buffer":0,"byteOffset":11688,"byteLength":72,"target":34963},{"buffer":0,"byteOffset":11760,"byteLength":288,"target":34962,"byteStride":12},{"buffer":0,"byteOffset":12048,"byteLength":288,"target":34962,"byteStride":12},{"buffer":0,"byteOffset":12336,"byteLength":192,"target":34962,"byteStride":8},{"buffer":0,"byteOffset":12528,"byteLength":72,"target":34963},{"buffer":0,"byteOffset":12600,"byteLength":288,"target":34962,"byteStride":12},{"buffer":0,"byteOffset":12888,"byteLength":288,"target":34962,"byteStride":12},{"buffer":0,"byteOffset":13176,"byteLength":192,"target":34962,"byteStride":8},{"buffer":0,"byteOffset":13368,"byteLength":72,"target":34963},{"buffer":0,"byteOffset":13440,"byteLength":288,"target":34962,"byteStride":12},{"buffer":0,"byteOffset":13728,"byteLength":288,"target":34962,"byteStride":12},{"buffer":0,"byteOffset":14016,"byteLength":192,"target":34962,"byteStride":8},{"buffer":0,"byteOffset":14208,"byteLength":72,"target":34963},{"buffer":0,"byteOffset":14280,"byteLength":288,"target":34962,"byteStride":12},{"buffer":0,"byteOffset":14568,"byteLength":288,"target":34962,"byteStride":12},{"buffer":0,"byteOffset":14856,"byteLength":192,"target":34962,"byteStride":8},{"buffer":0,"byteOffset":15048,"byteLength":72,"target":34963},{"buffer":0,"byteOffset":15120,"byteLength":288,"target":34962,"byteStride":12},{"buffer":0,"byteOffset":15408,"byteLength":288,"target":34962,"byteStride":12},{"buffer":0,"byteOffset":15696,"byteLength":192,"target":34962,"byteStride":8},{"buffer":0,"byteOffset":15888,"byteLength":72,"target":34963},{"buffer":0,"byteOffset":15960,"byteLength":288,"target":34962,"byteStride":12},{"buffer":0,"byteOffset":16248,"byteLength":288,"target":34962,"byteStride":12},{"buffer":0,"byteOffset":16536,"byteLength":192,"target":34962,"byteStride":8},{"buffer":0,"byteOffset":16728,"byteLength":72,"target":34963},{"buffer":0,"byteOffset":16800,"byteLength":288,"target":34962,"byteStride":12},{"buffer":0,"byteOffset":17088,"byteLength":288,"target":34962,"byteStride":12},{"buffer":0,"byteOffset":17376,"byteLength":192,"target":34962,"byteStride":8},{"buffer":0,"byteOffset":17568,"byteLength":72,"target":34963},{"buffer":0,"byteOffset":17640,"byteLength":288,"target":34962,"byteStride":12},{"buffer":0,"byteOffset":17928,"byteLength":288,"target":34962,"byteStride":12},{"buffer":0,"byteOffset":18216,"byteLength":192,"target":34962,"byteStride":8},{"buffer":0,"byteOffset":18408,"byteLength":72,"target":34963},{"buffer":0,"byteOffset":18480,"byteLength":288,"target":34962,"byteStride":12},{"buffer":0,"byteOffset":18768,"byteLength":288,"target":34962,"byteStride":12},{"buffer":0,"byteOffset":19056,"byteLength":192,"target":34962,"byteStride":8},{"buffer":0,"byteOffset":19248,"byteLength":72,"target":34963},{"buffer":0,"byteOffset":19320,"byteLength":288,"target":34962,"byteStride":12},{"buffer":0,"byteOffset":19608,"byteLength":288,"target":34962,"byteStride":12},{"buffer":0,"byteOffset":19896,"byteLength":192,"target":34962,"byteStride":8},{"buffer":0,"byteOffset":20088,"byteLength":72,"target":34963},{"buffer":0,"byteOffset":20160,"byteLength":288,"target":34962,"byteStride":12},{"buffer":0,"byteOffset":20448,"byteLength":288,"target":34962,"byteStride":12},{"buffer":0,"byteOffset":20736,"byteLength":192,"target":34962,"byteStride":8},{"buffer":0,"byteOffset":20928,"byteLength":72,"target":34963},{"buffer":0,"byteOffset":21000,"byteLength":288,"target":34962,"byteStride":12},{"buffer":0,"byteOffset":21288,"byteLength":288,"target":34962,"byteStride":12},{"buffer":0,"byteOffset":21576,"byteLength":192,"target":34962,"byteStride":8},{"buffer":0,"byteOffset":21768,"byteLength":72,"target":34963},{"buffer":0,"byteOffset":21840,"byteLength":288,"target":34962,"byteStride":12},{"buffer":0,"byteOffset":22128,"byteLength":288,"target":34962,"byteStride":12},{"buffer":0,"byteOffset":22416,"byteLength":192,"target":34962,"byteStride":8},{"buffer":0,"byteOffset":22608,"byteLength":72,"target":34963},{"buffer":0,"byteOffset":22680,"byteLength":288,"target":34962,"byteStride":12},{"buffer":0,"byteOffset":22968,"byteLength":288,"target":34962,"byteStride":12},{"buffer":0,"byteOffset":23256,"byteLength":192,"target":34962,"byteStride":8},{"buffer":0,"byteOffset":23448,"byteLength":72,"target":34963},{"buffer":0,"byteOffset":23520,"byteLength":288,"target":34962,"byteStride":12},{"buffer":0,"byteOffset":23808,"byteLength":288,"target":34962,"byteStride":12},{"buffer":0,"byteOffset":24096,"byteLength":192,"target":34962,"byteStride":8},{"buffer":0,"byteOffset":24288,"byteLength":72,"target":34963},{"buffer":0,"byteOffset":24360,"byteLength":288,"target":34962,"byteStride":12},{"buffer":0,"byteOffset":24648,"byteLength":288,"target":34962,"byteStride":12},{"buffer":0,"byteOffset":24936,"byteLength":192,"target":34962,"byteStride":8},{"buffer":0,"byteOffset":25128,"byteLength":72,"target":34963},{"buffer":0,"byteOffset":25200,"byteLength":288,"target":34962,"byteStride":12},{"buffer":0,"byteOffset":25488,"byteLength":288,"target":34962,"byteStride":12},{"buffer":0,"byteOffset":25776,"byteLength":192,"target":34962,"byteStride":8},{"buffer":0,"byteOffset":25968,"byteLength":72,"target":34963},{"buffer":0,"byteOffset":26040,"byteLength":288,"target":34962,"byteStride":12},{"buffer":0,"byteOffset":26328,"byteLength":288,"target":34962,"byteStride":12},{"buffer":0,"byteOffset":26616,"byteLength":192,"target":34962,"byteStride":8},{"buffer":0,"byteOffset":26808,"byteLength":72,"target":34963},{"buffer":0,"byteOffset":26880,"byteLength":288,"target":34962,"byteStride":12},{"buffer":0,"byteOffset":27168,"byteLength":288,"target":34962,"byteStride":12},{"buffer":0,"byteOffset":27456,"byteLength":192,"target":34962,"byteStride":8},{"buffer":0,"byteOffset":27648,"byteLength":72,"target":34963},{"buffer":0,"byteOffset":27720,"byteLength":288,"target":34962,"byteStride":12},{"buffer":0,"byteOffset":28008,"byteLength":288,"target":34962,"byteStride":12},{"buffer":0,"byteOffset":28296,"byteLength":192,"target":34962,"byteStride":8},{"buffer":0,"byteOffset":28488,"byteLength":72,"target":34963},{"buffer":0,"byteOffset":28560,"byteLength":288,"target":34962,"byteStride":12},{"buffer":0,"byteOffset":28848,"byteLength":288,"target":34962,"byteStride":12},{"buffer":0,"byteOffset":29136,"byteLength":192,"target":34962,"byteStride":8},{"buffer":0,"byteOffset":29328,"byteLength":72,"target":34963},{"buffer":0,"byteOffset":29400,"byteLength":288,"target":34962,"byteStride":12},{"buffer":0,"byteOffset":29688,"byteLength":288,"target":34962,"byteStride":12},{"buffer":0,"byteOffset":29976,"byteLength":192,"target":34962,"byteStride":8},{"buffer":0,"byteOffset":30168,"byteLength":72,"target":34963},{"buffer":0,"byteOffset":30240,"byteLength":288,"target":34962,"byteStride":12},{"buffer":0,"byteOffset":30528,"byteLength":288,"target":34962,"byteStride":12},{"buffer":0,"byteOffset":30816,"byteLength":192,"target":34962,"byteStride":8},{"buffer":0,"byteOffset":31008,"byteLength":72,"target":34963},{"buffer":0,"byteOffset":31080,"byteLength":288,"target":34962,"byteStride":12},{"buffer":0,"byteOffset":31368,"byteLength":288,"target":34962,"byteStride":12},{"buffer":0,"byteOffset":31656,"byteLength":192,"target":34962,"byteStride":8},{"buffer":0,"byteOffset":31848,"byteLength":72,"target":34963},{"buffer":0,"byteOffset":31920,"byteLength":288,"target":34962,"byteStride":12},{"buffer":0,"byteOffset":32208,"byteLength":288,"target":34962,"byteStride":12},{"buffer":0,"byteOffset":32496,"byteLength":192,"target":34962,"byteStride":8},{"buffer":0,"byteOffset":32688,"byteLength":72,"target":34963},{"buffer":0,"byteOffset":32760,"byteLength":288,"target":34962,"byteStride":12},{"buffer":0,"byteOffset":33048,"byteLength":288,"target":34962,"byteStride":12},{"buffer":0,"byteOffset":33336,"byteLength":192,"target":34962,"byteStride":8},{"buffer":0,"byteOffset":33528,"byteLength":72,"target":34963},{"buffer":0,"byteOffset":33600,"byteLength":288,"target":34962,"byteStride":12},{"buffer":0,"byteOffset":33888,"byteLength":288,"target":34962,"byteStride":12},{"buffer":0,"byteOffset":34176,"byteLength":192,"target":34962,"byteStride":8},{"buffer":0,"byteOffset":34368,"byteLength":72,"target":34963},{"buffer":0,"byteOffset":34440,"byteLength":288,"target":34962,"byteStride":12},{"buffer":0,"byteOffset":34728,"byteLength":288,"target":34962,"byteStride":12},{"buffer":0,"byteOffset":35016,"byteLength":192,"target":34962,"byteStride":8},{"buffer":0,"byteOffset":35208,"byteLength":72,"target":34963},{"buffer":0,"byteOffset":35280,"byteLength":288,"target":34962,"byteStride":12},{"buffer":0,"byteOffset":35568,"byteLength":288,"target":34962,"byteStride":12},{"buffer":0,"byteOffset":35856,"byteLength":192,"target":34962,"byteStride":8},{"buffer":0,"byteOffset":36048,"byteLength":72,"target":34963},{"buffer":0,"byteOffset":36120,"byteLength":288,"target":34962,"byteStride":12},{"buffer":0,"byteOffset":36408,"byteLength":288,"target":34962,"byteStride":12},{"buffer":0,"byteOffset":36696,"byteLength":192,"target":34962,"byteStride":8},{"buffer":0,"byteOffset":36888,"byteLength":72,"target":34963},{"buffer":0,"byteOffset":36960,"byteLength":288,"target":34962,"byteStride":12},{"buffer":0,"byteOffset":37248,"byteLength":288,"target":34962,"byteStride":12},{"buffer":0,"byteOffset":37536,"byteLength":192,"target":34962,"byteStride":8},{"buffer":0,"byteOffset":37728,"byteLength":72,"target":34963},{"buffer":0,"byteOffset":37800,"byteLength":288,"target":34962,"byteStride":12},{"buffer":0,"byteOffset":38088,"byteLength":288,"target":34962,"byteStride":12},{"buffer":0,"byteOffset":38376,"byteLength":192,"target":34962,"byteStride":8},{"buffer":0,"byteOffset":38568,"byteLength":72,"target":34963},{"buffer":0,"byteOffset":38640,"byteLength":288,"target":34962,"byteStride":12},{"buffer":0,"byteOffset":38928,"byteLength":288,"target":34962,"byteStride":12},{"buffer":0,"byteOffset":39216,"byteLength":192,"target":34962,"byteStride":8},{"buffer":0,"byteOffset":39408,"byteLength":72,"target":34963},{"buffer":0,"byteOffset":39480,"byteLength":288,"target":34962,"byteStride":12},{"buffer":0,"byteOffset":39768,"byteLength":288,"target":34962,"byteStride":12},{"buffer":0,"byteOffset":40056,"byteLength":192,"target":34962,"byteStride":8},{"buffer":0,"byteOffset":40248,"byteLength":72,"target":34963},{"buffer":0,"byteOffset":40320,"byteLength":288,"target":34962,"byteStride":12},{"buffer":0,"byteOffset":40608,"byteLength":288,"target":34962,"byteStride":12},{"buffer":0,"byteOffset":40896,"byteLength":192,"target":34962,"byteStride":8},{"buffer":0,"byteOffset":41088,"byteLength":72,"target":34963},{"buffer":0,"byteOffset":41160,"byteLength":288,"target":34962,"byteStride":12},{"buffer":0,"byteOffset":41448,"byteLength":288,"target":34962,"byteStride":12},{"buffer":0,"byteOffset":41736,"byteLength":192,"target":34962,"byteStride":8},{"buffer":0,"byteOffset":41928,"byteLength":72,"target":34963},{"buffer":0,"byteOffset":42000,"byteLength":288,"target":34962,"byteStride":12},{"buffer":0,"byteOffset":42288,"byteLength":288,"target":34962,"byteStride":12},{"buffer":0,"byteOffset":42576,"byteLength":192,"target":34962,"byteStride":8},{"buffer":0,"byteOffset":42768,"byteLength":72,"target":34963},{"buffer":0,"byteOffset":42840,"byteLength":288,"target":34962,"byteStride":12},{"buffer":0,"byteOffset":43128,"byteLength":288,"target":34962,"byteStride":12},{"buffer":0,"byteOffset":43416,"byteLength":192,"target":34962,"byteStride":8},{"buffer":0,"byteOffset":43608,"byteLength":72,"target":34963},{"buffer":0,"byteOffset":43680,"byteLength":288,"target":34962,"byteStride":12},{"buffer":0,"byteOffset":43968,"byteLength":288,"target":34962,"byteStride":12},{"buffer":0,"byteOffset":44256,"byteLength":192,"target":34962,"byteStride":8},{"buffer":0,"byteOffset":44448,"byteLength":72,"target":34963},{"buffer":0,"byteOffset":44520,"byteLength":288,"target":34962,"byteStride":12},{"buffer":0,"byteOffset":44808,"byteLength":288,"target":34962,"byteStride":12},{"buffer":0,"byteOffset":45096,"byteLength":192,"target":34962,"byteStride":8},{"buffer":0,"byteOffset":45288,"byteLength":72,"target":34963},{"buffer":0,"byteOffset":45360,"byteLength":288,"target":34962,"byteStride":12},{"buffer":0,"byteOffset":45648,"byteLength":288,"target":34962,"byteStride":12},{"buffer":0,"byteOffset":45936,"byteLength":192,"target":34962,"byteStride":8},{"buffer":0,"byteOffset":46128,"byteLength":72,"target":34963}],"buffers":[{"byteLength":46200,"uri":"data:application/octet-stream;base64,"}],"accessors":[{"bufferView":0,"componentType":5126,"count":24,"max":[0.40625,0.125,0.1875],"min":[0.09375,0,-0.3125],"type":"VEC3"},{"bufferView":1,"componentType":5126,"count":24,"max":[1,1,1],"min":[-1,-1,-1],"type":"VEC3"},{"bufferView":2,"componentType":5126,"count":24,"max":[0.18743896484375,0.40228271484375],"min":[0.08599853515625,0.36334228515625],"type":"VEC2"},{"bufferView":3,"componentType":5123,"count":36,"max":[23],"min":[0],"type":"SCALAR"},{"bufferView":4,"componentType":5126,"count":24,"max":[0.375,0.34375,0.125],"min":[0.125,0.03125,-0.125],"type":"VEC3"},{"bufferView":5,"componentType":5126,"count":24,"max":[1,1,1],"min":[-1,-1,-1],"type":"VEC3"},{"bufferView":6,"componentType":5126,"count":24,"max":[0.12493896484375,0.43743896484375],"min":[0.06256103515625,0.40240478515625],"type":"VEC2"},{"bufferView":7,"componentType":5123,"count":36,"max":[23],"min":[0],"type":"SCALAR"},{"bufferView":8,"componentType":5126,"count":24,"max":[0.40625,0.25,0.1875],"min":[0.09375,0.125,-0.1875],"type":"VEC3"},{"bufferView":9,"componentType":5126,"count":24,"max":[1,1,1],"min":[-1,-1,-1],"type":"VEC3"},{"bufferView":10,"componentType":5126,"count":24,"max":[0.47650146484375,0.03118896484375],"min":[0.39068603515625,0.00006103515625],"type":"VEC2"},{"bufferView":11,"componentType":5123,"count":36,"max":[23],"min":[0],"type":"SCALAR"},{"bufferView":12,"componentType":5126,"count":24,"max":[0.0000625000029685907,0.125,0.1875],"min":[0,-0.125,0],"type":"VEC3"},{"bufferView":13,"componentType":5126,"count":24,"max":[1,1,1],"min":[-1,-1,-1],"type":"VEC3"},{"bufferView":14,"componentType":5126,"count":24,"max":[0.08599853515625,0.19134521484375],"min":[0.06256103515625,0.16412353515625],"type":"VEC2"},{"bufferView":15,"componentType":5123,"count":36,"max":[23],"min":[0],"type":"SCALAR"},{"bufferView":16,"componentType":5126,"count":24,"max":[0.0000625000029685907,0.125,0.1875],"min":[0,-0.125,0],"type":"VEC3"},{"bufferView":17,"componentType":5126,"count":24,"max":[1,1,1],"min":[-1,-1,-1],"type":"VEC3"},{"bufferView":18,"componentType":5126,"count":24,"max":[0.08599853515625,0.19134521484375],"min":[0.06256103515625,0.16412353515625],"type":"VEC2"},{"bufferView":19,"componentType":5123,"count":36,"max":[23],"min":[0],"type":"SCALAR"},{"bufferView":20,"componentType":5126,"count":24,"max":[0.390625,0.140625,0.171875],"min":[0.109375,0.015625,-0.078125],"type":"VEC3"},{"bufferView":21,"componentType":5126,"count":24,"max":[1,1,1],"min":[-1,-1,-1],"type":"VEC3"},{"bufferView":22,"componentType":5126,"count":24,"max":[0.06243896484375,0.18743896484375],"min":[0.00006103515625,0.16412353515625],"type":"VEC2"},{"bufferView":23,"componentType":5123,"count":36,"max":[23],"min":[0],"type":"SCALAR"},{"bufferView":24,"componentType":5126,"count":24,"max":[0.484375,1.75,0.171875],"min":[0.078125,1.125,-0.171875],"type":"VEC3"},{"bufferView":25,"componentType":5126,"count":24,"max":[1,1,1],"min":[-1,-1,-1],"type":"VEC3"},{"bufferView":26,"componentType":5126,"count":24,"max":[0.08587646484375,0.37493896484375],"min":[0.00006103515625,0.31646728515625],"type":"VEC2"},{"bufferView":27,"componentType":5123,"count":36,"max":[23],"min":[0],"type":"SCALAR"},{"bufferView":28,"componentType":5126,"count":24,"max":[0.390625,1.71875,0.140625],"min":[0.109375,0.96875,-0.140625],"type":"VEC3"},{"bufferView":29,"componentType":5126,"count":24,"max":[1,1,1],"min":[-1,-1,-1],"type":"VEC3"},{"bufferView":30,"componentType":5126,"count":24,"max":[0.31243896484375,0.44134521484375],"min":[0.25006103515625,0.37896728515625],"type":"VEC2"},{"bufferView":31,"componentType":5123,"count":36,"max":[23],"min":[0],"type":"SCALAR"},{"bufferView":32,"componentType":5126,"count":24,"max":[0.40625,1.125,0.15625],"min":[0.09375,0.3125,-0.15625],"type":"VEC3"},{"bufferView":33,"componentType":5126,"count":24,"max":[1,1,1],"min":[-1,-1,-1],"type":"VEC3"},{"bufferView":34,"componentType":5126,"count":24,"max":[0.37493896484375,0.19525146484375],"min":[0.29693603515625,0.12506103515625],"type":"VEC2"},{"bufferView":35,"componentType":5123,"count":36,"max":[23],"min":[0],"type":"SCALAR"},{"bufferView":36,"componentType":5126,"count":24,"max":[0.375,1.09375,0.125],"min":[0.125,0.34375,-0.125],"type":"VEC3"},{"bufferView":37,"componentType":5126,"count":24,"max":[1,1,1],"min":[-1,-1,-1],"type":"VEC3"},{"bufferView":38,"componentType":5126,"count":24,"max":[0.37493896484375,0.44134521484375],"min":[0.31256103515625,0.37896728515625],"type":"VEC2"},{"bufferView":39,"componentType":5123,"count":36,"max":[23],"min":[0],"type":"SCALAR"},{"bufferView":40,"componentType":5126,"count":24,"max":[0.3125,1.6875,0.0625],"min":[0.1875,1.5625,-0.0625],"type":"VEC3"},{"bufferView":41,"componentType":5126,"count":24,"max":[1,1,1],"min":[-1,-1,-1],"type":"VEC3"},{"bufferView":42,"componentType":5126,"count":24,"max":[0.30462646484375,0.35931396484375],"min":[0.27349853515625,0.34381103515625],"type":"VEC2"},{"bufferView":43,"componentType":5123,"count":36,"max":[23],"min":[0],"type":"SCALAR"},{"bufferView":44,"componentType":5126,"count":24,"max":[-0.09375,0.125,0.1875],"min":[-0.40625,0,-0.3125],"type":"VEC3"},{"bufferView":45,"componentType":5126,"count":24,"max":[1,1,1],"min":[-1,-1,-1],"type":"VEC3"},{"bufferView":46,"componentType":5126,"count":24,"max":[0.53509521484375,0.12493896484375],"min":[0.43365478515625,0.08599853515625],"type":"VEC2"},{"bufferView":47,"componentType":5123,"count":36,"max":[23],"min":[0],"type":"SCALAR"},{"bufferView":48,"componentType":5126,"count":24,"max":[-0.125,0.34375,0.125],"min":[-0.375,0.03125,-0.125],"type":"VEC3"},{"bufferView":49,"componentType":5126,"count":24,"max":[1,1,1],"min":[-1,-1,-1],"type":"VEC3"},{"bufferView":50,"componentType":5126,"count":24,"max":[0.18743896484375,0.43743896484375],"min":[0.12506103515625,0.40240478515625],"type":"VEC2"},{"bufferView":51,"componentType":5123,"count":36,"max":[23],"min":[0],"type":"SCALAR"},{"bufferView":52,"componentType":5126,"count":24,"max":[0.0000625000029685907,0.125,0.1875],"min":[0,-0.125,0],"type":"VEC3"},{"bufferView":53,"componentType":5126,"count":24,"max":[1,1,1],"min":[-1,-1,-1],"type":"VEC3"},{"bufferView":54,"componentType":5126,"count":24,"max":[0.08599853515625,0.19134521484375],"min":[0.06256103515625,0.16412353515625],"type":"VEC2"},{"bufferView":55,"componentType":5123,"count":36,"max":[23],"min":[0],"type":"SCALAR"},{"bufferView":56,"componentType":5126,"count":24,"max":[0.0000625000029685907,0.125,0.1875],"min":[0,-0.125,0],"type":"VEC3"},{"bufferView":57,"componentType":5126,"count":24,"max":[1,1,1],"min":[-1,-1,-1],"type":"VEC3"},{"bufferView":58,"componentType":5126,"count":24,"max":[0.08599853515625,0.19134521484375],"min":[0.06256103515625,0.16412353515625],"type":"VEC2"},{"bufferView":59,"componentType":5123,"count":36,"max":[23],"min":[0],"type":"SCALAR"},{"bufferView":60,"componentType":5126,"count":24,"max":[-0.109375,0.140625,0.171875],"min":[-0.390625,0.015625,-0.078125],"type":"VEC3"},{"bufferView":61,"componentType":5126,"count":24,"max":[1,1,1],"min":[-1,-1,-1],"type":"VEC3"},{"bufferView":62,"componentType":5126,"count":24,"max":[0.59759521484375,0.12493896484375],"min":[0.53521728515625,0.10162353515625],"type":"VEC2"},{"bufferView":63,"componentType":5123,"count":36,"max":[23],"min":[0],"type":"SCALAR"},{"bufferView":64,"componentType":5126,"count":24,"max":[-0.09375,0.25,0.1875],"min":[-0.40625,0.125,-0.1875],"type":"VEC3"},{"bufferView":65,"componentType":5126,"count":24,"max":[1,1,1],"min":[-1,-1,-1],"type":"VEC3"},{"bufferView":66,"componentType":5126,"count":24,"max":[0.47650146484375,0.03118896484375],"min":[0.39068603515625,0.00006103515625],"type":"VEC2"},{"bufferView":67,"componentType":5123,"count":36,"max":[23],"min":[0],"type":"SCALAR"},{"bufferView":68,"componentType":5126,"count":24,"max":[0.203125,0.3125,0.171875],"min":[-0.203125,-0.3125,-0.171875],"type":"VEC3"},{"bufferView":69,"componentType":5126,"count":24,"max":[1,1,1],"min":[-1,-1,-1],"type":"VEC3"},{"bufferView":70,"componentType":5126,"count":24,"max":[0.64447021484375,0.07025146484375],"min":[0.55865478515625,0.01177978515625],"type":"VEC2"},{"bufferView":71,"componentType":5123,"count":36,"max":[23],"min":[0],"type":"SCALAR"},{"bufferView":72,"componentType":5126,"count":24,"max":[-0.109375,1.71875,0.140625],"min":[-0.390625,0.96875,-0.140625],"type":"VEC3"},{"bufferView":73,"componentType":5126,"count":24,"max":[1,1,1],"min":[-1,-1,-1],"type":"VEC3"},{"bufferView":74,"componentType":5126,"count":24,"max":[0.43743896484375,0.44134521484375],"min":[0.37506103515625,0.37896728515625],"type":"VEC2"},{"bufferView":75,"componentType":5123,"count":36,"max":[23],"min":[0],"type":"SCALAR"},{"bufferView":76,"componentType":5126,"count":24,"max":[-0.09375,1.125,0.15625],"min":[-0.40625,0.3125,-0.15625],"type":"VEC3"},{"bufferView":77,"componentType":5126,"count":24,"max":[1,1,1],"min":[-1,-1,-1],"type":"VEC3"},{"bufferView":78,"componentType":5126,"count":24,"max":[0.55462646484375,0.07025146484375],"min":[0.47662353515625,0.00006103515625],"type":"VEC2"},{"bufferView":79,"componentType":5123,"count":36,"max":[23],"min":[0],"type":"SCALAR"},{"bufferView":80,"componentType":5126,"count":24,"max":[-0.125,1.09375,0.125],"min":[-0.375,0.34375,-0.125],"type":"VEC3"},{"bufferView":81,"componentType":5126,"count":24,"max":[1,1,1],"min":[-1,-1,-1],"type":"VEC3"},{"bufferView":82,"componentType":5126,"count":24,"max":[0.45306396484375,0.37493896484375],"min":[0.39068603515625,0.31256103515625],"type":"VEC2"},{"bufferView":83,"componentType":5123,"count":36,"max":[23],"min":[0],"type":"SCALAR"},{"bufferView":84,"componentType":5126,"count":24,"max":[-0.1875,1.6875,0.0625],"min":[-0.3125,1.5625,-0.0625],"type":"VEC3"},{"bufferView":85,"componentType":5126,"count":24,"max":[1,1,1],"min":[-1,-1,-1],"type":"VEC3"},{"bufferView":86,"componentType":5126,"count":24,"max":[0.30462646484375,0.36322021484375],"min":[0.27349853515625,0.34771728515625],"type":"VEC2"},{"bufferView":87,"componentType":5123,"count":36,"max":[23],"min":[0],"type":"SCALAR"},{"bufferView":88,"componentType":5126,"count":24,"max":[0.3125,2.625,0.25],"min":[-0.3125,1.75,-0.1875],"type":"VEC3"},{"bufferView":89,"componentType":5126,"count":24,"max":[1,1,1],"min":[-1,-1,-1],"type":"VEC3"},{"bufferView":90,"componentType":5126,"count":24,"max":[0.13275146484375,0.16400146484375],"min":[0.00006103515625,0.08209228515625],"type":"VEC2"},{"bufferView":91,"componentType":5123,"count":36,"max":[23],"min":[0],"type":"SCALAR"},{"bufferView":92,"componentType":5126,"count":24,"max":[0.4375,3,0.25],"min":[-0.4375,2.625,-0.1875],"type":"VEC3"},{"bufferView":93,"componentType":5126,"count":24,"max":[1,1,1],"min":[-1,-1,-1],"type":"VEC3"},{"bufferView":94,"componentType":5126,"count":24,"max":[0.29681396484375,0.13275146484375],"min":[0.13287353515625,0.08209228515625],"type":"VEC2"},{"bufferView":95,"componentType":5123,"count":36,"max":[23],"min":[0],"type":"SCALAR"},{"bufferView":96,"componentType":5126,"count":24,"max":[0.625,3,0.375],"min":[-0.625,2.375,-0.3125],"type":"VEC3"},{"bufferView":97,"componentType":5126,"count":24,"max":[1,1,1],"min":[-1,-1,-1],"type":"VEC3"},{"bufferView":98,"componentType":5126,"count":24,"max":[0.24212646484375,0.08197021484375],"min":[0.00006103515625,0.00006103515625],"type":"VEC2"},{"bufferView":99,"componentType":5123,"count":36,"max":[23],"min":[0],"type":"SCALAR"},{"bufferView":100,"componentType":5126,"count":24,"max":[0,0.1875,0.34375],"min":[-0.5,0,-0.34375],"type":"VEC3"},{"bufferView":101,"componentType":5126,"count":24,"max":[1,1,1],"min":[-1,-1,-1],"type":"VEC3"},{"bufferView":102,"componentType":5126,"count":24,"max":[0.58978271484375,0.17962646484375],"min":[0.44146728515625,0.12506103515625],"type":"VEC2"},{"bufferView":103,"componentType":5123,"count":36,"max":[23],"min":[0],"type":"SCALAR"},{"bufferView":104,"componentType":5126,"count":24,"max":[0,0.1875,0.34375],"min":[-0.5,0,-0.34375],"type":"VEC3"},{"bufferView":105,"componentType":5126,"count":24,"max":[1,1,1],"min":[-1,-1,-1],"type":"VEC3"},{"bufferView":106,"componentType":5126,"count":24,"max":[0.73822021484375,0.17962646484375],"min":[0.58990478515625,0.12506103515625],"type":"VEC2"},{"bufferView":107,"componentType":5123,"count":36,"max":[23],"min":[0],"type":"SCALAR"},{"bufferView":108,"componentType":5126,"count":24,"max":[0,0.1875,0.34375],"min":[-0.5,0,-0.34375],"type":"VEC3"},{"bufferView":109,"componentType":5126,"count":24,"max":[1,1,1],"min":[-1,-1,-1],"type":"VEC3"},{"bufferView":110,"componentType":5126,"count":24,"max":[0.73822021484375,0.23431396484375],"min":[0.58990478515625,0.17974853515625],"type":"VEC2"},{"bufferView":111,"componentType":5123,"count":36,"max":[23],"min":[0],"type":"SCALAR"},{"bufferView":112,"componentType":5126,"count":24,"max":[0,0.1875,0.34375],"min":[-0.5,0,-0.34375],"type":"VEC3"},{"bufferView":113,"componentType":5126,"count":24,"max":[1,1,1],"min":[-1,-1,-1],"type":"VEC3"},{"bufferView":114,"componentType":5126,"count":24,"max":[0.73822021484375,0.28900146484375],"min":[0.58990478515625,0.23443603515625],"type":"VEC2"},{"bufferView":115,"componentType":5123,"count":36,"max":[23],"min":[0],"type":"SCALAR"},{"bufferView":116,"componentType":5126,"count":24,"max":[0,0.1875,0.34375],"min":[-0.5,0,-0.34375],"type":"VEC3"},{"bufferView":117,"componentType":5126,"count":24,"max":[1,1,1],"min":[-1,-1,-1],"type":"VEC3"},{"bufferView":118,"componentType":5126,"count":24,"max":[0.73822021484375,0.23431396484375],"min":[0.58990478515625,0.17974853515625],"type":"VEC2"},{"bufferView":119,"componentType":5123,"count":36,"max":[23],"min":[0],"type":"SCALAR"},{"bufferView":120,"componentType":5126,"count":24,"max":[0,0.1875,0.34375],"min":[-0.5,0,-0.34375],"type":"VEC3"},{"bufferView":121,"componentType":5126,"count":24,"max":[1,1,1],"min":[-1,-1,-1],"type":"VEC3"},{"bufferView":122,"componentType":5126,"count":24,"max":[0.73822021484375,0.17962646484375],"min":[0.58990478515625,0.12506103515625],"type":"VEC2"},{"bufferView":123,"componentType":5123,"count":36,"max":[23],"min":[0],"type":"SCALAR"},{"bufferView":124,"componentType":5126,"count":24,"max":[0.28125,3.5625,0.3125],"min":[-0.28125,3.0625,-0.25],"type":"VEC3"},{"bufferView":125,"componentType":5126,"count":24,"max":[1,1,1],"min":[-1,-1,-1],"type":"VEC3"},{"bufferView":126,"componentType":5126,"count":24,"max":[0.14056396484375,0.31634521484375],"min":[0.00006103515625,0.25006103515625],"type":"VEC2"},{"bufferView":127,"componentType":5123,"count":36,"max":[23],"min":[0],"type":"SCALAR"},{"bufferView":128,"componentType":5126,"count":24,"max":[0.0000625000029685907,0.25,0],"min":[0,-0.125,-0.375],"type":"VEC3"},{"bufferView":129,"componentType":5126,"count":24,"max":[1,1,1],"min":[-1,-1,-1],"type":"VEC3"},{"bufferView":130,"componentType":5126,"count":24,"max":[0.13287353515625,0.36322021484375],"min":[0.08599853515625,0.31646728515625],"type":"VEC2"},{"bufferView":131,"componentType":5123,"count":36,"max":[23],"min":[0],"type":"SCALAR"},{"bufferView":132,"componentType":5126,"count":24,"max":[0.0000625000029685907,0.25,0],"min":[0,-0.125,-0.375],"type":"VEC3"},{"bufferView":133,"componentType":5126,"count":24,"max":[1,1,1],"min":[-1,-1,-1],"type":"VEC3"},{"bufferView":134,"componentType":5126,"count":24,"max":[0.13287353515625,0.36322021484375],"min":[0.08599853515625,0.31646728515625],"type":"VEC2"},{"bufferView":135,"componentType":5123,"count":36,"max":[23],"min":[0],"type":"SCALAR"},{"bufferView":136,"componentType":5126,"count":24,"max":[0.0000625000029685907,0.3125,0.4375],"min":[0,-0.0625,0],"type":"VEC3"},{"bufferView":137,"componentType":5126,"count":24,"max":[1,1,1],"min":[-1,-1,-1],"type":"VEC3"},{"bufferView":138,"componentType":5126,"count":24,"max":[0.44537353515625,0.24212646484375],"min":[0.39068603515625,0.19146728515625],"type":"VEC2"},{"bufferView":139,"componentType":5123,"count":36,"max":[23],"min":[0],"type":"SCALAR"},{"bufferView":140,"componentType":5126,"count":24,"max":[0.0000625000029685907,0.3125,0.4375],"min":[0,-0.0625,0],"type":"VEC3"},{"bufferView":141,"componentType":5126,"count":24,"max":[1,1,1],"min":[-1,-1,-1],"type":"VEC3"},{"bufferView":142,"componentType":5126,"count":24,"max":[0.44537353515625,0.24212646484375],"min":[0.39068603515625,0.19146728515625],"type":"VEC2"},{"bufferView":143,"componentType":5123,"count":36,"max":[23],"min":[0],"type":"SCALAR"},{"bufferView":144,"componentType":5126,"count":24,"max":[0.25,3.5,0.28125],"min":[-0.25,3,-0.21875],"type":"VEC3"},{"bufferView":145,"componentType":5126,"count":24,"max":[1,1,1],"min":[-1,-1,-1],"type":"VEC3"},{"bufferView":146,"componentType":5126,"count":24,"max":[0.26556396484375,0.31243896484375],"min":[0.14068603515625,0.25006103515625],"type":"VEC2"},{"bufferView":147,"componentType":5123,"count":36,"max":[23],"min":[0],"type":"SCALAR"},{"bufferView":148,"componentType":5126,"count":24,"max":[0.3125,1.125,0.0000625000029685907],"min":[-0.0625,0.5625,0],"type":"VEC3"},{"bufferView":149,"componentType":5126,"count":24,"max":[1,1,1],"min":[-1,-1,-1],"type":"VEC3"},{"bufferView":150,"componentType":5126,"count":24,"max":[0.45306396484375,0.06634521484375],"min":[0.40618896484375,0.03118896484375],"type":"VEC2"},{"bufferView":151,"componentType":5123,"count":36,"max":[23],"min":[0],"type":"SCALAR"},{"bufferView":152,"componentType":5126,"count":24,"max":[0.109375,0.75,0.140625],"min":[-0.171875,-0.0625,-0.140625],"type":"VEC3"},{"bufferView":153,"componentType":5126,"count":24,"max":[1,1,1],"min":[-1,-1,-1],"type":"VEC3"},{"bufferView":154,"componentType":5126,"count":24,"max":[0.43743896484375,0.31243896484375],"min":[0.37506103515625,0.24615478515625],"type":"VEC2"},{"bufferView":155,"componentType":5123,"count":36,"max":[23],"min":[0],"type":"SCALAR"},{"bufferView":156,"componentType":5126,"count":24,"max":[0.1875,0.875,0.21875],"min":[-0.25,0.25,-0.21875],"type":"VEC3"},{"bufferView":157,"componentType":5126,"count":24,"max":[1,1,1],"min":[-1,-1,-1],"type":"VEC3"},{"bufferView":158,"componentType":5126,"count":24,"max":[0.40618896484375,0.12493896484375],"min":[0.29693603515625,0.05865478515625],"type":"VEC2"},{"bufferView":159,"componentType":5123,"count":36,"max":[23],"min":[0],"type":"SCALAR"},{"bufferView":160,"componentType":5126,"count":24,"max":[-0.8749374747276306,2.34375,0.40625],"min":[-0.875,1.84375,0.15625],"type":"VEC3"},{"bufferView":161,"componentType":5126,"count":24,"max":[1,1,1],"min":[-1,-1,-1],"type":"VEC3"},{"bufferView":162,"componentType":5126,"count":24,"max":[0.43756103515625,0.11322021484375],"min":[0.40631103515625,0.06646728515625],"type":"VEC2"},{"bufferView":163,"componentType":5123,"count":36,"max":[23],"min":[0],"type":"SCALAR"},{"bufferView":164,"componentType":5126,"count":24,"max":[0.09375,0.125,0.125],"min":[-0.15625,-0.6875,-0.125],"type":"VEC3"},{"bufferView":165,"componentType":5126,"count":24,"max":[1,1,1],"min":[-1,-1,-1],"type":"VEC3"},{"bufferView":166,"componentType":5126,"count":24,"max":[0.24993896484375,0.44525146484375],"min":[0.18756103515625,0.37896728515625],"type":"VEC2"},{"bufferView":167,"componentType":5123,"count":36,"max":[23],"min":[0],"type":"SCALAR"},{"bufferView":168,"componentType":5126,"count":24,"max":[0.125,0.15625,0.15625],"min":[-0.1875,-0.53125,-0.15625],"type":"VEC3"},{"bufferView":169,"componentType":5126,"count":24,"max":[1,1,1],"min":[-1,-1,-1],"type":"VEC3"},{"bufferView":170,"componentType":5126,"count":24,"max":[0.39056396484375,0.37884521484375],"min":[0.31256103515625,0.31646728515625],"type":"VEC2"},{"bufferView":171,"componentType":5123,"count":36,"max":[23],"min":[0],"type":"SCALAR"},{"bufferView":172,"componentType":5126,"count":24,"max":[0.15625,-0.625,0.1875],"min":[-0.21875,-1.0625,-0.1875],"type":"VEC3"},{"bufferView":173,"componentType":5126,"count":24,"max":[1,1,1],"min":[-1,-1,-1],"type":"VEC3"},{"bufferView":174,"componentType":5126,"count":24,"max":[0.23431396484375,0.36322021484375],"min":[0.14068603515625,0.31256103515625],"type":"VEC2"},{"bufferView":175,"componentType":5123,"count":36,"max":[23],"min":[0],"type":"SCALAR"},{"bufferView":176,"componentType":5126,"count":24,"max":[0.109375,-0.625,0.140625],"min":[-0.171875,-0.9375,-0.140625],"type":"VEC3"},{"bufferView":177,"componentType":5126,"count":24,"max":[1,1,1],"min":[-1,-1,-1],"type":"VEC3"},{"bufferView":178,"componentType":5126,"count":24,"max":[0.18743896484375,0.43743896484375],"min":[0.12506103515625,0.40240478515625],"type":"VEC2"},{"bufferView":179,"componentType":5123,"count":36,"max":[23],"min":[0],"type":"SCALAR"},{"bufferView":180,"componentType":5126,"count":24,"max":[-0.8125,3.8125,0.0625],"min":[-0.9375,1.375,-0.0625],"type":"VEC3"},{"bufferView":181,"componentType":5126,"count":24,"max":[1,1,1],"min":[-1,-1,-1],"type":"VEC3"},{"bufferView":182,"componentType":5126,"count":24,"max":[0.03118896484375,0.69134521484375],"min":[0.00006103515625,0.53131103515625],"type":"VEC2"},{"bufferView":183,"componentType":5123,"count":36,"max":[23],"min":[0],"type":"SCALAR"},{"bufferView":184,"componentType":5126,"count":24,"max":[1.015625,3,0.140625],"min":[0.734375,2.1875,-0.140625],"type":"VEC3"},{"bufferView":185,"componentType":5126,"count":24,"max":[1,1,1],"min":[-1,-1,-1],"type":"VEC3"},{"bufferView":186,"componentType":5126,"count":24,"max":[0.06243896484375,0.44134521484375],"min":[0.00006103515625,0.37506103515625],"type":"VEC2"},{"bufferView":187,"componentType":5123,"count":36,"max":[23],"min":[0],"type":"SCALAR"},{"bufferView":188,"componentType":5126,"count":24,"max":[1.09375,3.125,0.21875],"min":[0.65625,2.5,-0.21875],"type":"VEC3"},{"bufferView":189,"componentType":5126,"count":24,"max":[1,1,1],"min":[-1,-1,-1],"type":"VEC3"},{"bufferView":190,"componentType":5126,"count":24,"max":[0.37493896484375,0.31634521484375],"min":[0.26568603515625,0.25006103515625],"type":"VEC2"},{"bufferView":191,"componentType":5123,"count":36,"max":[23],"min":[0],"type":"SCALAR"},{"bufferView":192,"componentType":5126,"count":24,"max":[1.21875,3.375,0.0000625000029685907],"min":[0.84375,2.8125,0],"type":"VEC3"},{"bufferView":193,"componentType":5126,"count":24,"max":[1,1,1],"min":[-1,-1,-1],"type":"VEC3"},{"bufferView":194,"componentType":5126,"count":24,"max":[0.45306396484375,0.06634521484375],"min":[0.40618896484375,0.03118896484375],"type":"VEC2"},{"bufferView":195,"componentType":5123,"count":36,"max":[23],"min":[0],"type":"SCALAR"},{"bufferView":196,"componentType":5126,"count":24,"max":[0.8750625252723694,2.34375,0.40625],"min":[0.875,1.84375,0.15625],"type":"VEC3"},{"bufferView":197,"componentType":5126,"count":24,"max":[1,1,1],"min":[-1,-1,-1],"type":"VEC3"},{"bufferView":198,"componentType":5126,"count":24,"max":[0.43756103515625,0.11322021484375],"min":[0.40631103515625,0.06646728515625],"type":"VEC2"},{"bufferView":199,"componentType":5123,"count":36,"max":[23],"min":[0],"type":"SCALAR"},{"bufferView":200,"componentType":5126,"count":24,"max":[1.03125,2.40625,0.15625],"min":[0.71875,1.71875,-0.15625],"type":"VEC3"},{"bufferView":201,"componentType":5126,"count":24,"max":[1,1,1],"min":[-1,-1,-1],"type":"VEC3"},{"bufferView":202,"componentType":5126,"count":24,"max":[0.31243896484375,0.37884521484375],"min":[0.23443603515625,0.31646728515625],"type":"VEC2"},{"bufferView":203,"componentType":5123,"count":36,"max":[23],"min":[0],"type":"SCALAR"},{"bufferView":204,"componentType":5126,"count":24,"max":[1,2.375,0.125],"min":[0.75,1.5625,-0.125],"type":"VEC3"},{"bufferView":205,"componentType":5126,"count":24,"max":[1,1,1],"min":[-1,-1,-1],"type":"VEC3"},{"bufferView":206,"componentType":5126,"count":24,"max":[0.43743896484375,0.19134521484375],"min":[0.37506103515625,0.12506103515625],"type":"VEC2"},{"bufferView":207,"componentType":5123,"count":36,"max":[23],"min":[0],"type":"SCALAR"},{"bufferView":208,"componentType":5126,"count":24,"max":[1.0625,1.625,0.1875],"min":[0.6875,1.1875,-0.1875],"type":"VEC3"},{"bufferView":209,"componentType":5126,"count":24,"max":[1,1,1],"min":[-1,-1,-1],"type":"VEC3"},{"bufferView":210,"componentType":5126,"count":24,"max":[0.39056396484375,0.24603271484375],"min":[0.29693603515625,0.19537353515625],"type":"VEC2"},{"bufferView":211,"componentType":5123,"count":36,"max":[23],"min":[0],"type":"SCALAR"},{"bufferView":212,"componentType":5126,"count":24,"max":[1.015625,1.625,0.140625],"min":[0.734375,1.3125,-0.140625],"type":"VEC3"},{"bufferView":213,"componentType":5126,"count":24,"max":[1,1,1],"min":[-1,-1,-1],"type":"VEC3"},{"bufferView":214,"componentType":5126,"count":24,"max":[0.12493896484375,0.43743896484375],"min":[0.06256103515625,0.40240478515625],"type":"VEC2"},{"bufferView":215,"componentType":5123,"count":36,"max":[23],"min":[0],"type":"SCALAR"},{"bufferView":216,"componentType":5126,"count":24,"max":[0.9375,3.8125,0.0625],"min":[0.8125,1.375,-0.0625],"type":"VEC3"},{"bufferView":217,"componentType":5126,"count":24,"max":[1,1,1],"min":[-1,-1,-1],"type":"VEC3"},{"bufferView":218,"componentType":5126,"count":24,"max":[0.03118896484375,0.69134521484375],"min":[0.00006103515625,0.53131103515625],"type":"VEC2"},{"bufferView":219,"componentType":5123,"count":36,"max":[23],"min":[0],"type":"SCALAR"}],"materials":[{"pbrMetallicRoughness":{"metallicFactor":0,"roughnessFactor":1},"alphaMode":"MASK","alphaCutoff":0.05,"doubleSided":true},{"pbrMetallicRoughness":{"metallicFactor":0,"roughnessFactor":1},"alphaMode":"MASK","alphaCutoff":0.05,"doubleSided":true},{"pbrMetallicRoughness":{"metallicFactor":0,"roughnessFactor":1},"alphaMode":"MASK","alphaCutoff":0.05,"doubleSided":true},{"pbrMetallicRoughness":{"metallicFactor":0,"roughnessFactor":1},"alphaMode":"MASK","alphaCutoff":0.05,"doubleSided":true},{"pbrMetallicRoughness":{"metallicFactor":0,"roughnessFactor":1},"alphaMode":"MASK","alphaCutoff":0.05,"doubleSided":true},{"pbrMetallicRoughness":{"metallicFactor":0,"roughnessFactor":1},"alphaMode":"MASK","alphaCutoff":0.05,"doubleSided":true},{"pbrMetallicRoughness":{"metallicFactor":0,"roughnessFactor":1},"alphaMode":"MASK","alphaCutoff":0.05,"doubleSided":true},{"pbrMetallicRoughness":{"metallicFactor":0,"roughnessFactor":1},"alphaMode":"MASK","alphaCutoff":0.05,"doubleSided":true},{"pbrMetallicRoughness":{"metallicFactor":0,"roughnessFactor":1},"alphaMode":"MASK","alphaCutoff":0.05,"doubleSided":true},{"pbrMetallicRoughness":{"metallicFactor":0,"roughnessFactor":1},"alphaMode":"MASK","alphaCutoff":0.05,"doubleSided":true}],"meshes":[{"primitives":[{"mode":4,"attributes":{"POSITION":0,"NORMAL":1,"TEXCOORD_0":2},"indices":3,"material":0}]},{"primitives":[{"mode":4,"attributes":{"POSITION":4,"NORMAL":5,"TEXCOORD_0":6},"indices":7,"material":0}]},{"primitives":[{"mode":4,"attributes":{"POSITION":8,"NORMAL":9,"TEXCOORD_0":10},"indices":11,"material":0}]},{"primitives":[{"mode":4,"attributes":{"POSITION":12,"NORMAL":13,"TEXCOORD_0":14},"indices":15,"material":0}]},{"primitives":[{"mode":4,"attributes":{"POSITION":16,"NORMAL":17,"TEXCOORD_0":18},"indices":19,"material":0}]},{"primitives":[{"mode":4,"attributes":{"POSITION":20,"NORMAL":21,"TEXCOORD_0":22},"indices":23,"material":0}]},{"primitives":[{"mode":4,"attributes":{"POSITION":24,"NORMAL":25,"TEXCOORD_0":26},"indices":27,"material":1}]},{"primitives":[{"mode":4,"attributes":{"POSITION":28,"NORMAL":29,"TEXCOORD_0":30},"indices":31,"material":1}]},{"primitives":[{"mode":4,"attributes":{"POSITION":32,"NORMAL":33,"TEXCOORD_0":34},"indices":35,"material":2}]},{"primitives":[{"mode":4,"attributes":{"POSITION":36,"NORMAL":37,"TEXCOORD_0":38},"indices":39,"material":2}]},{"primitives":[{"mode":4,"attributes":{"POSITION":40,"NORMAL":41,"TEXCOORD_0":42},"indices":43,"material":3}]},{"primitives":[{"mode":4,"attributes":{"POSITION":44,"NORMAL":45,"TEXCOORD_0":46},"indices":47,"material":4}]},{"primitives":[{"mode":4,"attributes":{"POSITION":48,"NORMAL":49,"TEXCOORD_0":50},"indices":51,"material":4}]},{"primitives":[{"mode":4,"attributes":{"POSITION":52,"NORMAL":53,"TEXCOORD_0":54},"indices":55,"material":4}]},{"primitives":[{"mode":4,"attributes":{"POSITION":56,"NORMAL":57,"TEXCOORD_0":58},"indices":59,"material":4}]},{"primitives":[{"mode":4,"attributes":{"POSITION":60,"NORMAL":61,"TEXCOORD_0":62},"indices":63,"material":4}]},{"primitives":[{"mode":4,"attributes":{"POSITION":64,"NORMAL":65,"TEXCOORD_0":66},"indices":67,"material":4}]},{"primitives":[{"mode":4,"attributes":{"POSITION":68,"NORMAL":69,"TEXCOORD_0":70},"indices":71,"material":5}]},{"primitives":[{"mode":4,"attributes":{"POSITION":72,"NORMAL":73,"TEXCOORD_0":74},"indices":75,"material":5}]},{"primitives":[{"mode":4,"attributes":{"POSITION":76,"NORMAL":77,"TEXCOORD_0":78},"indices":79,"material":6}]},{"primitives":[{"mode":4,"attributes":{"POSITION":80,"NORMAL":81,"TEXCOORD_0":82},"indices":83,"material":6}]},{"primitives":[{"mode":4,"attributes":{"POSITION":84,"NORMAL":85,"TEXCOORD_0":86},"indices":87,"material":7}]},{"primitives":[{"mode":4,"attributes":{"POSITION":88,"NORMAL":89,"TEXCOORD_0":90},"indices":91,"material":1}]},{"primitives":[{"mode":4,"attributes":{"POSITION":92,"NORMAL":93,"TEXCOORD_0":94},"indices":95,"material":1}]},{"primitives":[{"mode":4,"attributes":{"POSITION":96,"NORMAL":97,"TEXCOORD_0":98},"indices":99,"material":1}]},{"primitives":[{"mode":4,"attributes":{"POSITION":100,"NORMAL":101,"TEXCOORD_0":102},"indices":103,"material":1}]},{"primitives":[{"mode":4,"attributes":{"POSITION":104,"NORMAL":105,"TEXCOORD_0":106},"indices":107,"material":1}]},{"primitives":[{"mode":4,"attributes":{"POSITION":108,"NORMAL":109,"TEXCOORD_0":110},"indices":111,"material":1}]},{"primitives":[{"mode":4,"attributes":{"POSITION":112,"NORMAL":113,"TEXCOORD_0":114},"indices":115,"material":1}]},{"primitives":[{"mode":4,"attributes":{"POSITION":116,"NORMAL":117,"TEXCOORD_0":118},"indices":119,"material":1}]},{"primitives":[{"mode":4,"attributes":{"POSITION":120,"NORMAL":121,"TEXCOORD_0":122},"indices":123,"material":1}]},{"primitives":[{"mode":4,"attributes":{"POSITION":124,"NORMAL":125,"TEXCOORD_0":126},"indices":127,"material":2}]},{"primitives":[{"mode":4,"attributes":{"POSITION":128,"NORMAL":129,"TEXCOORD_0":130},"indices":131,"material":2}]},{"primitives":[{"mode":4,"attributes":{"POSITION":132,"NORMAL":133,"TEXCOORD_0":134},"indices":135,"material":2}]},{"primitives":[{"mode":4,"attributes":{"POSITION":136,"NORMAL":137,"TEXCOORD_0":138},"indices":139,"material":2}]},{"primitives":[{"mode":4,"attributes":{"POSITION":140,"NORMAL":141,"TEXCOORD_0":142},"indices":143,"material":2}]},{"primitives":[{"mode":4,"attributes":{"POSITION":144,"NORMAL":145,"TEXCOORD_0":146},"indices":147,"material":2}]},{"primitives":[{"mode":4,"attributes":{"POSITION":148,"NORMAL":149,"TEXCOORD_0":150},"indices":151,"material":3}]},{"primitives":[{"mode":4,"attributes":{"POSITION":152,"NORMAL":153,"TEXCOORD_0":154},"indices":155,"material":3}]},{"primitives":[{"mode":4,"attributes":{"POSITION":156,"NORMAL":157,"TEXCOORD_0":158},"indices":159,"material":3}]},{"primitives":[{"mode":4,"attributes":{"POSITION":160,"NORMAL":161,"TEXCOORD_0":162},"indices":163,"material":8}]},{"primitives":[{"mode":4,"attributes":{"POSITION":164,"NORMAL":165,"TEXCOORD_0":166},"indices":167,"material":8}]},{"primitives":[{"mode":4,"attributes":{"POSITION":168,"NORMAL":169,"TEXCOORD_0":170},"indices":171,"material":8}]},{"primitives":[{"mode":4,"attributes":{"POSITION":172,"NORMAL":173,"TEXCOORD_0":174},"indices":175,"material":9}]},{"primitives":[{"mode":4,"attributes":{"POSITION":176,"NORMAL":177,"TEXCOORD_0":178},"indices":179,"material":9}]},{"primitives":[{"mode":4,"attributes":{"POSITION":180,"NORMAL":181,"TEXCOORD_0":182},"indices":183,"material":4}]},{"primitives":[{"mode":4,"attributes":{"POSITION":184,"NORMAL":185,"TEXCOORD_0":186},"indices":187,"material":5}]},{"primitives":[{"mode":4,"attributes":{"POSITION":188,"NORMAL":189,"TEXCOORD_0":190},"indices":191,"material":5}]},{"primitives":[{"mode":4,"attributes":{"POSITION":192,"NORMAL":193,"TEXCOORD_0":194},"indices":195,"material":5}]},{"primitives":[{"mode":4,"attributes":{"POSITION":196,"NORMAL":197,"TEXCOORD_0":198},"indices":199,"material":6}]},{"primitives":[{"mode":4,"attributes":{"POSITION":200,"NORMAL":201,"TEXCOORD_0":202},"indices":203,"material":6}]},{"primitives":[{"mode":4,"attributes":{"POSITION":204,"NORMAL":205,"TEXCOORD_0":206},"indices":207,"material":6}]},{"primitives":[{"mode":4,"attributes":{"POSITION":208,"NORMAL":209,"TEXCOORD_0":210},"indices":211,"material":7}]},{"primitives":[{"mode":4,"attributes":{"POSITION":212,"NORMAL":213,"TEXCOORD_0":214},"indices":215,"material":7}]},{"primitives":[{"mode":4,"attributes":{"POSITION":216,"NORMAL":217,"TEXCOORD_0":218},"indices":219,"material":0}]}]}