{
  "asset": {
    "version": "2.0",
    "generator": "CrystalTides ModelEngine Assembler"
  },
  "scene": 0,
  "scenes": [
    {
      "nodes": [
        0
      ]
    }
  ],
  "nodes": [
    {
      "name": "BossModel",
      "mesh": 0
    }
  ],
  "materials": [
    {
      "name": "Material",
      "pbrMetallicRoughness": {
        "baseColorTexture": {
          "index": 0
        },
        "metallicFactor": 0.0,
        "roughnessFactor": 1.0
      },
      "doubleSided": true,
      "alphaMode": "BLEND"
    }
  ],
  "textures": [
    {
      "source": 0
    }
  ],
  "images": [
    {
      "uri": "toro_wither.png"
    }
  ],
  "meshes": [
    {
      "primitives": [
        {
          "attributes": {
            "POSITION": 0,
            "NORMAL": 1,
            "TEXCOORD_0": 2
          },
          "indices": 3,
          "material": 0
        }
      ]
    }
  ],
  "accessors": [
    {
      "bufferView": 0,
      "byteOffset": 0,
      "componentType": 5126,
      "count": 312,
      "type": "VEC3",
      "min": [
        -0.12852996875,
        0.05835907728098774,
        -0.19031650742446607
      ],
      "max": [
        1.13714,
        1.3026313589425533,
        0.88783025
      ]
    },
    {
      "bufferView": 1,
      "byteOffset": 0,
      "componentType": 5126,
      "count": 312,
      "type": "VEC3"
    },
    {
      "bufferView": 2,
      "byteOffset": 0,
      "componentType": 5126,
      "count": 312,
      "type": "VEC2"
    },
    {
      "bufferView": 3,
      "byteOffset": 0,
      "componentType": 5123,
      "count": 468,
      "type": "SCALAR"
    }
  ],
  "bufferViews": [
    {
      "buffer": 0,
      "byteOffset": 0,
      "byteLength": 3744,
      "target": 34962
    },
    {
      "buffer": 0,
      "byteOffset": 3744,
      "byteLength": 3744,
      "target": 34962
    },
    {
      "buffer": 0,
      "byteOffset": 7488,
      "byteLength": 2496,
      "target": 34962
    },
    {
      "buffer": 0,
      "byteOffset": 9984,
      "byteLength": 936,
      "target": 34963
    }
  ],
  "buffers": [
    {
      "byteLength": 10920,
      "uri": "data:application/octet-stream;base64,"
    }
  ]
}